<?xml version="1.0" standalone="no"?>
<!DOCTYPE svg PUBLIC "-//W3C//DTD SVG 1.1//EN" "http://www.w3.org/Graphics/SVG/1.1/DTD/svg11.dtd" >
<svg xmlns="http://www.w3.org/2000/svg">
<metadata>Generated by IcoMoon</metadata>
<defs>
<font id="icomoon" horiz-adv-x="1024">
<font-face units-per-em="1024" ascent="960" descent="-64" />
<missing-glyph horiz-adv-x="1024" />
<glyph unicode="&#x20;" horiz-adv-x="512" d="" />
<glyph unicode="&#xe900;" glyph-name="edit" horiz-adv-x="975" d="M933.61 917.906l-1.175 1.071c-22.445 20.504-51.541 31.797-81.93 31.797-34.070 0-66.775-14.421-89.741-39.562l-434.257-475.422c-3.958-4.335-6.96-9.445-8.817-15.014l-51.062-153.078c-5.904-17.696-2.941-37.269 7.925-52.351 10.952-15.204 28.596-24.279 47.202-24.279h0.003c8.048 0 15.914 1.653 23.375 4.92l147.847 64.678c5.374 2.35 10.196 5.803 14.151 10.138l434.259 475.419c45.193 49.468 41.706 126.48-7.778 171.683zM364.461 295.98l29.963 89.824 2.527 2.765 56.79-51.868-2.527-2.77-86.753-37.951zM879.47 802.781l-369.172-404.167-56.789 51.868 369.172 404.172c7.222 7.905 17.101 12.26 27.824 12.26 9.406 0 18.417-3.5 25.39-9.867l1.17-1.070c15.331-14.002 16.408-37.866 2.404-53.195zM849.364 563.935c-23.157 0-41.93-18.773-41.93-41.93v-355.976c0-58.797-47.84-106.633-106.633-106.633h-508.189c-58.8 0-106.633 47.835-106.633 106.633v504.058c0 58.797 47.836 106.633 106.633 106.633h367.828c23.157 0 41.93 18.773 41.93 41.93s-18.773 41.93-41.93 41.93h-367.828c-105.040 0-190.493-85.456-190.493-190.493v-504.058c0-105.033 85.456-190.488 190.493-190.488h508.184c105.038 0 190.493 85.455 190.493 190.488v355.976c0 23.157-18.773 41.93-41.925 41.93z" />
<glyph unicode="&#xe901;" glyph-name="badge" horiz-adv-x="975" d="M812.695 625.692c0.112 52.628-12.551 104.497-36.908 151.151-24.352 46.653-59.67 86.696-102.917 116.688s-93.125 49.035-145.359 55.494c-52.229 6.459-105.247 0.141-154.496-18.412s-93.258-48.786-128.244-88.101c-34.987-39.315-59.905-86.536-72.614-137.607s-12.829-104.463-0.349-155.59c12.48-51.127 37.186-98.457 71.996-137.93v-334.263c0-19.139 5.405-37.888 15.593-54.087s24.745-29.189 41.993-37.478c17.249-8.29 36.488-11.537 55.502-9.372s37.029 9.66 51.971 21.616l78.75 63.069 78.75-62.986c14.936-11.952 32.944-19.446 51.951-21.616s38.239 1.073 55.486 9.353c17.247 8.28 31.803 21.26 41.999 37.444 10.191 16.189 15.609 34.928 15.623 54.057v334.263c52.351 59.114 81.257 135.345 81.271 214.308zM487.614 869.502c48.221 0 95.359-14.299 135.456-41.089 40.092-26.79 71.344-64.868 89.795-109.418s23.284-93.572 13.873-140.867c-9.406-47.294-32.627-90.737-66.726-124.837-34.094-34.094-77.536-57.315-124.83-66.721-47.299-9.411-96.318-4.584-140.869 13.873-44.55 18.452-82.629 49.703-109.419 89.797s-41.089 87.233-41.089 135.453c0.065 64.643 25.773 126.619 71.482 172.328s107.686 71.417 172.328 71.482zM638.654 58.919c-3.438-1.707-7.295-2.384-11.108-1.95s-7.417 1.955-10.386 4.384l-129.546 103.663-129.503-103.663c-2.982-2.389-6.578-3.896-10.376-4.335-3.798-0.444-7.643 0.2-11.094 1.843-3.45 1.648-6.366 4.237-8.412 7.465s-3.139 6.973-3.154 10.796v267.459c49.329-28.794 105.422-43.964 162.54-43.964 57.12 0 113.211 15.17 162.538 43.964v-267.459c0.049-3.823-1.014-7.573-3.057-10.806-2.038-3.228-4.969-5.798-8.441-7.397z" />
<glyph unicode="&#xe902;" horiz-adv-x="975" d="M223.5 259.974c33.663 0 60.952 27.292 60.952 60.952 0 33.665-27.29 60.952-60.952 60.952s-60.952-27.287-60.952-60.952c0-33.66 27.289-60.952 60.952-60.952z" />
<glyph unicode="&#xe903;" horiz-adv-x="975" d="M853.333 828.869h-731.429c-32.331 0-63.338-12.843-86.2-35.705s-35.705-53.869-35.705-86.2v-609.523h975.238v609.523c0 32.331-12.844 63.338-35.703 86.2-22.864 22.862-53.872 35.705-86.201 35.705zM121.905 747.599h731.429c10.776 0 21.114-4.281 28.735-11.901 7.617-7.621 11.898-17.957 11.898-28.733v-81.27h-812.697v81.27c0 10.777 4.281 21.113 11.901 28.733s17.957 11.901 28.733 11.901zM81.27 178.712v365.712h812.697v-365.712h-812.697z" />
<glyph unicode="&#xe904;" glyph-name="down-dark" horiz-adv-x="983" d="M491.52 317.37c-10.756-0.020-21.414 2.085-31.351 6.197-9.941 4.112-18.969 10.15-26.567 17.764l-216.803 216.841 57.917 57.917 216.803-216.8 216.801 216.8 57.917-57.917-216.801-216.8c-7.598-7.623-16.626-13.664-26.563-17.785-9.941-4.121-20.599-6.234-31.355-6.218z" />
<glyph unicode="&#xe905;" glyph-name="add" d="M494.965 945.905c-97.213 0-192.243-28.827-273.073-82.836s-143.829-130.774-181.031-220.587c-37.202-89.814-46.936-188.641-27.97-283.988s65.778-182.927 134.518-251.666c68.74-68.739 156.321-115.552 251.666-134.517 95.345-18.969 194.174-9.232 283.987 27.967 89.813 37.204 166.58 100.2 220.586 181.031 54.010 80.83 82.838 175.862 82.838 273.076-0.139 130.315-51.97 255.253-144.118 347.401s-217.084 143.978-347.402 144.119v0zM494.965 44.786c-81.011 0-160.203 24.023-227.561 69.030s-119.858 108.978-150.859 183.82c-31.002 74.846-39.113 157.204-23.309 236.659s54.815 152.438 112.099 209.721c57.284 57.284 130.268 96.294 209.722 112.099s161.812 7.693 236.655-23.309c74.846-31.002 138.818-83.501 183.824-150.859s69.030-146.55 69.030-227.561c-0.119-108.597-43.311-212.709-120.099-289.501-76.792-76.788-180.904-119.98-289.501-120.099zM535.925 495.346h163.84v-81.92h-163.84v-163.84h-81.92v163.84h-163.84v81.92h163.84v163.839h81.92v-163.839z" />
<glyph unicode="&#xe906;" glyph-name="angle-small-down" horiz-adv-x="983" d="M491.52 317.37c-10.756-0.020-21.414 2.085-31.351 6.197-9.941 4.112-18.969 10.15-26.567 17.764l-216.803 216.841 57.917 57.917 216.803-216.8 216.801 216.8 57.917-57.917-216.801-216.8c-7.598-7.623-16.626-13.664-26.563-17.785-9.941-4.121-20.599-6.234-31.355-6.218z" />
<glyph unicode="&#xe907;" glyph-name="angle-small-left" horiz-adv-x="983" d="M564.228 186.012l-216.803 216.801c-15.358 15.36-23.985 36.192-23.985 57.917 0 21.721 8.628 42.553 23.985 57.917l216.803 216.8 57.917-57.917-216.639-216.8 216.803-216.801-58.081-57.917z" />
<glyph unicode="&#xe908;" glyph-name="angle-small-right" horiz-adv-x="983" d="M442.814 186.012l-57.795 57.917 216.637 216.801-216.637 216.8 57.958 57.917 216.474-216.8c15.356-15.364 23.986-36.196 23.986-57.917 0-21.725-8.63-42.557-23.986-57.917l-216.637-216.801z" />
<glyph unicode="&#xe909;" glyph-name="angle-small-up" horiz-adv-x="983" d="M708.321 329.372l-216.801 216.801-216.803-216.801-57.917 57.917 216.803 216.801c15.36 15.358 36.192 23.985 57.917 23.985 21.721 0 42.553-8.627 57.917-23.985l216.801-216.801-57.917-57.917z" />
<glyph unicode="&#xe90a;" glyph-name="apps" horiz-adv-x="983" d="M450.56 501.69h-450.56v327.68c0 32.59 12.946 63.845 35.991 86.889s54.299 35.991 86.889 35.991h327.68v-450.56zM81.92 583.61h286.72v286.72h-245.76c-10.863 0-21.282-4.316-28.963-11.997s-11.997-18.1-11.997-28.963v-245.76zM983.040 501.69h-450.56v450.56h327.68c32.588 0 63.844-12.946 86.888-35.991s35.992-54.299 35.992-86.889v-327.68zM614.4 583.61h286.72v245.76c0 10.863-4.317 21.282-11.997 28.963s-18.1 11.997-28.963 11.997h-245.76v-286.72zM450.56-30.79h-327.68c-32.59 0-63.845 12.947-86.889 35.992s-35.991 54.297-35.991 86.888v327.68h450.56v-450.56zM81.92 337.85v-245.76c0-10.863 4.316-21.283 11.997-28.963 7.682-7.684 18.1-11.997 28.963-11.997h245.76v286.72h-286.72zM860.16-30.79h-327.68v450.56h450.56v-327.68c0-32.592-12.947-63.844-35.992-86.888s-54.301-35.992-86.888-35.992zM614.4 51.13h245.76c10.863 0 21.283 4.313 28.963 11.997 7.68 7.68 11.997 18.1 11.997 28.963v245.76h-286.72v-286.72z" />
<glyph unicode="&#xe90b;" glyph-name="arrow-small-right" horiz-adv-x="983" d="M713.277 518.648l-175.841 175.84-57.917-57.917 134.881-134.88h-409.6v-81.92h409.6l-134.881-134.881 57.917-57.917 175.841 175.841c15.356 15.36 23.986 36.192 23.986 57.917 0 21.721-8.63 42.553-23.986 57.917z" />
<glyph unicode="&#xe90c;" glyph-name="bell" horiz-adv-x="983" d="M952.685 288.698l-106.496 383.836c-22.741 82.108-72.29 154.25-140.767 204.944s-151.941 77.028-237.109 74.81c-85.171-2.218-167.151-32.861-232.894-87.051s-111.472-128.814-129.908-211.994l-82.371-370.688c-3.986-17.957-3.888-36.581 0.285-54.497s12.315-34.669 23.826-49.017c11.511-14.348 26.096-25.932 42.681-33.89s34.744-12.095 53.14-12.1h147.743c9.401-46.297 34.518-87.921 71.096-117.817s82.368-46.227 129.607-46.227c47.243 0 93.032 16.331 129.61 46.227s61.694 71.52 71.094 117.817h142.131c18.928 0.008 37.597 4.391 54.555 12.8 16.957 8.413 31.74 20.627 43.196 35.697 11.461 15.065 19.28 32.571 22.86 51.159 3.576 18.588 2.81 37.749-2.236 55.992h-0.041zM491.516 51.13c-25.321 0.106-49.996 8.032-70.644 22.696-20.646 14.664-36.258 35.348-44.699 59.224h230.686c-8.442-23.876-24.052-44.56-44.7-59.224s-45.318-22.589-70.644-22.696zM866.914 231.15c-3.822-5.067-8.774-9.167-14.463-11.977s-11.96-4.248-18.305-4.202h-691.076c-6.133 0-12.188 1.38-17.718 4.035s-10.392 6.517-14.229 11.301c-3.837 4.784-6.551 10.367-7.941 16.343-1.39 5.972-1.42 12.182-0.089 18.17l82.371 370.688c14.514 65.282 50.434 123.838 102.050 166.361s115.965 66.571 182.818 68.323c66.851 1.751 132.37-18.895 186.143-58.657s92.709-96.357 110.621-160.79l106.496-383.836c1.741-6.070 2.040-12.46 0.881-18.665-1.155-6.21-3.744-12.059-7.557-17.093z" />
<glyph unicode="&#xe90d;" glyph-name="book-alt" horiz-adv-x="983" d="M938.885 882.618c-13.795 11.562-29.97 19.936-47.374 24.524s-35.607 5.277-53.305 2.019l-253.133-45.998c-36.221-6.531-69.186-25.090-93.553-52.675-24.351 27.63-57.315 46.233-93.553 52.797l-253.133 45.998c-17.704 3.215-35.899 2.502-53.297-2.087s-33.577-12.944-47.392-24.474c-13.815-11.529-24.929-25.952-32.557-42.249s-11.584-34.070-11.589-52.063v-689.52l491.52-89.416 491.52 89.416v689.52c0 17.981-3.953 35.741-11.583 52.022s-18.751 30.684-32.571 42.186zM450.56 100.282l-368.64 66.929v621.199c0.005 5.997 1.327 11.92 3.872 17.349s6.252 10.235 10.858 14.075c4.606 3.84 9.999 6.622 15.799 8.15s11.863 1.763 17.763 0.689l253.092-45.998c18.875-3.434 35.946-13.384 48.239-28.115 12.288-14.731 19.022-33.309 19.018-52.494v-601.784zM901.12 167.293l-368.64-67.011v601.784c-0.004 19.185 6.73 37.763 19.018 52.494 12.292 14.731 29.364 24.681 48.239 28.115l253.092 45.998c5.898 1.074 11.964 0.838 17.764-0.689s11.19-4.309 15.798-8.15c4.604-3.84 8.311-8.645 10.858-14.075 2.544-5.43 3.867-11.352 3.871-17.349v-621.117z" />
<glyph unicode="&#xe90e;" glyph-name="cross" horiz-adv-x="983" d="M983.040 894.333l-57.917 57.917-433.603-433.602-433.603 433.602-57.917-57.917 433.603-433.602-433.603-433.603 57.917-57.917 433.603 433.603 433.603-433.603 57.917 57.917-433.603 433.603 433.603 433.602z" />
<glyph unicode="&#xe90f;" glyph-name="crown" horiz-adv-x="983" d="M860.16 63.132h-737.28c-32.59 0-63.845 12.943-86.889 35.987s-35.991 54.301-35.991 86.893v672.316l245.76-245.76 245.76 245.76 245.76-245.76 245.76 245.76v-672.316c0-32.592-12.947-63.848-35.992-86.893s-54.301-35.987-86.888-35.987zM81.92 660.573v-474.561c0-10.867 4.316-21.283 11.997-28.963 7.682-7.684 18.1-11.997 28.963-11.997h737.28c10.863 0 21.283 4.313 28.963 11.997 7.68 7.68 11.997 18.096 11.997 28.963v474.561l-163.84-163.838-245.76 245.758-245.76-245.758-163.84 163.838z" />
<glyph unicode="&#xe910;" glyph-name="eye" d="M1013.419 501.648c-34.966 76.459-172.073 325.786-470.74 325.786s-435.775-249.327-470.739-325.786c-4.693-10.247-7.123-21.385-7.123-32.655s2.43-22.408 7.123-32.654c34.964-76.379 172.072-325.706 470.739-325.706s435.774 249.328 470.74 325.786c4.683 10.235 7.107 21.359 7.107 32.614s-2.423 22.379-7.107 32.614zM542.678 190.28c-251.159 0-368.356 213.684-398.223 278.316 29.867 65.507 147.063 279.194 398.223 279.194 250.56 0 367.801-212.77 398.221-278.755-30.42-65.986-147.661-278.754-398.221-278.754zM542.678 668.142c-39.38 0-77.877-11.678-110.62-33.556s-58.264-52.975-73.335-89.358c-15.070-36.383-19.013-76.417-11.33-115.041s26.646-74.102 54.493-101.948c27.846-27.846 63.324-46.81 101.948-54.495 38.624-7.68 78.658-3.734 115.041 11.333 36.383 15.071 67.479 40.591 89.358 73.335s33.553 71.24 33.553 110.62c-0.061 52.789-21.060 103.397-58.382 140.724-37.33 37.327-87.938 58.325-140.726 58.388zM542.678 349.564c-23.628 0-46.726 7.007-66.372 20.134s-34.958 31.786-44.001 53.615c-9.042 21.83-11.408 45.851-6.798 69.024s15.987 44.461 32.696 61.169c16.708 16.708 37.994 28.086 61.168 32.696s47.195 2.244 69.025-6.799c21.83-9.042 40.488-24.354 53.615-44.001s20.134-42.744 20.134-66.372c0-31.684-12.586-62.071-34.991-84.475s-52.791-34.991-84.476-34.991z" />
<glyph unicode="&#xe911;" glyph-name="flame" horiz-adv-x="983" d="M671.74 785.462c-49.152 41.656-99.779 84.869-151.020 135.946l-29.204 29-28.672-29.041c-92.242-92.488-135.823-234.496-154.747-319.693-14.485 22.45-25.233 47.1-31.826 72.991l-17.326 66.888-50.381-47.35c-88.269-82.862-147.128-165.069-147.128-296.715-0.824-94.953 30.102-187.466 87.868-262.832 57.765-75.37 139.058-129.274 230.964-153.158 27.692-6.734 55.955-10.85 84.419-12.288 8.901-1.126 17.859-1.712 26.829-1.761 4.71 0 9.298 0.41 13.885 0.696 111.579 3.359 217.461 50.065 295.166 130.212 77.709 80.146 121.123 187.417 121.029 299.049 0 175.883-115.794 274.187-249.856 388.055zM499.708 50.065c-4.096 0-8.192-0.41-12.534-0.369-36.868 1.126-71.852 16.54-97.564 42.988-25.712 26.444-40.136 61.85-40.225 98.734 0 51.937 27.853 77.824 90.89 131.482 15.892 13.517 33.178 28.221 51.364 45.056 15.933-14.459 31.416-27.566 45.711-39.731 63.324-53.74 96.379-84.255 96.379-136.684-0.070-36.229-13.988-71.062-38.904-97.366-24.916-26.3-58.946-42.082-95.117-44.11zM705.327 122.606l-0.819-0.573c7.352 22.397 11.112 45.814 11.141 69.386 0 92.774-60.867 144.466-125.256 199.148-22.815 19.333-46.367 39.322-69.878 62.833l-29 28.959-28.959-28.959c-26.542-26.501-52.511-48.62-75.407-68.116-64.225-54.641-119.726-101.868-119.726-193.864 0.088-24.584 4.239-48.984 12.288-72.212-42.637 32.739-77.129 74.891-100.782 123.167-23.653 48.271-35.828 101.36-35.573 155.116-0.674 71.877 27.146 141.095 77.373 192.512 8.652-17.552 18.908-34.267 30.638-49.931 8.568-11.559 20.33-20.361 33.839-25.317s28.172-5.853 42.183-2.576c14.254 3.174 27.292 10.383 37.555 20.771s17.319 23.512 20.321 37.802c17.151 94.14 54.243 183.522 108.79 262.144 43.213-40.96 86.016-77.21 124.641-110.019 128.287-108.954 221.184-187.679 221.184-325.632 0.102-53.027-11.985-105.37-35.32-152.99-23.339-47.616-57.303-89.235-99.275-121.647h0.041z" />
<glyph unicode="&#xe912;" glyph-name="headset" horiz-adv-x="983" d="M860.16 443.363v58.327c0 97.769-38.842 191.534-107.975 260.667s-162.898 107.972-260.665 107.972c-97.772 0-191.536-38.839-260.67-107.972s-107.972-162.898-107.972-260.667v-58.327c-42.96-18.915-78.119-52.019-99.589-93.762s-27.949-89.592-18.353-135.545c9.597-45.949 34.687-87.204 71.070-116.867 36.383-29.659 81.851-45.92 128.792-46.060h81.92v409.6h-81.92v40.96c0 76.043 30.208 148.971 83.978 202.741s126.697 83.978 202.744 83.978c76.042 0 148.967-30.208 202.74-83.978s83.98-126.699 83.98-202.741v-40.96h-81.92v-327.68h-163.84v-81.92h245.76c46.94 0.139 92.406 16.4 128.791 46.060 36.381 29.663 61.473 70.918 71.070 116.867 9.597 45.953 3.117 93.802-18.354 135.545s-56.627 74.846-99.586 93.762zM204.798 133.050c-32.59 0-63.845 12.947-86.889 35.992s-35.991 54.297-35.991 86.888c0 32.588 12.946 63.844 35.991 86.888s54.299 35.992 86.889 35.992v-245.76zM778.24 133.050v245.76c32.588 0 63.844-12.947 86.888-35.992s35.992-54.301 35.992-86.888c0-32.592-12.947-63.844-35.992-86.888s-54.301-35.992-86.888-35.992z" />
<glyph unicode="&#xe913;" glyph-name="heart-green" d="M761.699 910.383c-44.844-0.697-88.706-13.215-127.162-36.289s-70.143-55.887-91.86-95.125c-21.718 39.238-53.404 72.051-91.86 95.125s-82.32 35.591-127.162 36.289c-71.483-3.106-138.832-34.377-187.332-86.981s-74.21-122.266-71.512-193.766c0-269.795 436.292-581.406 454.849-594.622l23.017-16.288 23.017 16.288c18.558 13.141 454.853 324.827 454.853 594.622 2.697 71.5-23.013 141.162-71.516 193.766-48.497 52.604-115.849 83.875-187.331 86.981zM542.676 116.763c-129.542 96.768-398.223 334.509-398.223 512.873-2.722 50.387 14.59 99.805 48.16 137.479s80.674 60.544 131.040 63.624c50.366-3.080 97.47-25.951 131.041-63.624s50.882-87.092 48.159-137.479h79.645c-2.722 50.387 14.589 99.805 48.159 137.479s80.674 60.544 131.041 63.624c50.367-3.080 97.471-25.951 131.038-63.624 33.574-37.674 50.886-87.092 48.162-137.479 0-178.443-268.681-416.105-398.223-512.873z" />
<glyph unicode="&#xe914;" glyph-name="heart" horiz-adv-x="983" d="M716.8 914.69c-46.125-0.718-91.242-13.593-130.798-37.326s-72.147-57.483-94.482-97.842c-22.34 40.359-54.931 74.109-94.487 97.842s-84.672 36.608-130.795 37.326c-73.526-3.194-142.799-35.359-192.685-89.466s-76.33-125.759-73.555-199.302c0-277.504 448.759-598.016 467.847-611.615l23.675-16.753 23.675 16.753c19.087 13.517 467.845 334.111 467.845 611.615 2.773 73.542-23.671 145.195-73.556 199.302s-119.161 86.272-192.684 89.466zM491.52 98.398c-133.245 99.533-409.602 344.064-409.602 527.524-2.8 51.826 15.006 102.657 49.535 141.406s82.98 62.274 134.785 65.442c51.805-3.168 100.255-26.692 134.785-65.442s52.335-89.58 49.537-141.406h81.92c-2.802 51.826 15.004 102.657 49.533 141.406s82.981 62.274 134.787 65.442c51.802-3.168 100.254-26.692 134.783-65.442s52.335-89.58 49.537-141.406c0-183.542-276.357-427.991-409.6-527.524z" />
<glyph unicode="&#xe915;" glyph-name="home" horiz-adv-x="983" d="M546.324 918.131c-15.045 13.54-34.566 21.032-54.804 21.032s-39.76-7.492-54.804-21.032l-436.716-393.052v-425.984c0-34.763 13.809-68.1 38.39-92.68 24.581-24.584 57.92-38.392 92.682-38.392h720.896c34.763 0 68.1 13.808 92.68 38.392 24.584 24.58 38.392 57.917 38.392 92.68v425.984l-436.716 393.052zM614.4 50.065h-245.76v205.865c0 32.588 12.946 63.844 35.991 86.888s54.301 35.992 86.889 35.992c32.588 0 63.844-12.947 86.888-35.992s35.992-54.301 35.992-86.888v-205.865zM901.12 99.217c0-13.038-5.177-25.539-14.397-34.755-9.216-9.22-21.717-14.397-34.755-14.397h-155.648v205.865c0 54.317-21.578 106.406-59.986 144.814-38.404 38.408-90.497 59.986-144.814 59.986s-106.408-21.578-144.815-59.986c-38.408-38.408-59.985-90.497-59.985-144.814v-205.865h-155.648c-13.036 0-25.538 5.177-34.756 14.397-9.218 9.216-14.396 21.717-14.396 34.755v389.407l409.6 368.64 409.6-368.64v-389.407z" />
<glyph unicode="&#xe916;" glyph-name="lock" horiz-adv-x="983" d="M778.24 624.57v40.96c0 76.043-30.208 148.971-83.98 202.742-53.768 53.77-126.697 83.978-202.74 83.978s-148.971-30.208-202.742-83.978c-53.77-53.771-83.978-126.699-83.978-202.742v-40.96h-122.88v-532.48c0-32.592 12.946-63.844 35.991-86.888s54.299-35.992 86.889-35.992h573.44c32.588 0 63.844 12.947 86.888 35.992s35.992 54.297 35.992 86.888v532.48h-122.88zM286.72 665.53c0 54.316 21.577 106.408 59.985 144.815s90.498 59.985 144.815 59.985c54.317 0 106.41-21.577 144.814-59.985 38.408-38.407 59.986-90.499 59.986-144.815v-40.96h-409.6v40.96zM819.2 92.090c0-10.863-4.317-21.283-11.997-28.963-7.68-7.684-18.1-11.997-28.963-11.997h-573.44c-10.863 0-21.282 4.313-28.963 11.997-7.681 7.68-11.997 18.1-11.997 28.963v450.56h655.36v-450.56zM532.48 378.81h-81.92v-163.84h81.92v163.84z" />
<glyph unicode="&#xe917;" glyph-name="marker" horiz-adv-x="983" d="M491.516-31.117l-28.672 24.576c-39.526 33.096-384.654 331.162-384.654 549.192 0 109.621 43.547 214.752 121.061 292.266s182.646 121.061 292.265 121.061c109.621 0 214.753-43.547 292.266-121.061 77.517-77.514 121.061-182.646 121.061-292.266 0-218.030-345.129-516.096-384.492-549.356l-28.836-24.412zM491.516 866.603c-85.886-0.097-168.228-34.259-228.96-94.991s-94.894-143.074-94.991-228.961c0-136.97 212.337-355.779 323.951-455.926 111.616 100.188 323.953 319.119 323.953 455.926-0.094 85.887-34.259 168.229-94.99 228.961s-143.073 94.894-228.962 94.991zM491.52 378.81c-32.403 0-64.082 9.609-91.025 27.611s-47.943 43.594-60.344 73.531c-12.401 29.938-15.645 62.878-9.323 94.661s21.926 60.976 44.839 83.889 52.106 38.518 83.887 44.839c31.785 6.322 64.725 3.077 94.663-9.323s55.529-33.4 73.531-60.344c18.002-26.943 27.611-58.62 27.611-91.024 0-43.454-17.261-85.127-47.989-115.851-30.724-30.728-72.397-47.989-115.851-47.989zM491.52 624.57c-16.204 0-32.039-4.805-45.511-13.806s-23.974-21.796-30.175-36.764c-6.197-14.969-7.821-31.439-4.661-47.332 3.162-15.892 10.965-30.487 22.422-41.943s26.055-19.259 41.943-22.422c15.892-3.162 32.362-1.536 47.333 4.661 14.967 6.201 27.763 16.703 36.762 30.171 9.003 13.472 13.808 29.311 13.808 45.515 0 21.726-8.63 42.563-23.994 57.926s-36.2 23.994-57.926 23.994z" />
<glyph unicode="&#xe918;" glyph-name="marker-brand" horiz-adv-x="964" d="M481.899-49.327l-28.109 24.094c-38.752 32.443-377.113 324.668-377.113 538.422 0 107.472 42.693 210.542 118.687 286.536s179.064 118.687 286.536 118.687c107.472 0 210.542-42.693 286.534-118.687s118.688-179.064 118.688-286.536c0-213.753-338.361-505.979-376.951-538.584l-28.271-23.931zM481.899 830.789c-84.204-0.095-164.931-33.588-224.472-93.129s-93.033-140.268-93.129-224.472c0-134.285 208.173-348.801 317.6-446.984 109.428 98.22 317.598 312.86 317.598 446.984-0.090 84.204-33.587 164.931-93.124 224.472-59.543 59.541-140.271 93.033-224.474 93.129zM481.9 352.569c-31.769 0-62.825 9.42-89.24 27.070s-47.003 42.737-59.161 72.088c-12.158 29.351-15.339 61.647-9.141 92.806s21.496 59.779 43.96 82.243c22.464 22.464 51.085 37.763 82.244 43.96s63.455 3.017 92.806-9.141c29.351-12.157 54.437-32.745 72.085-59.16 17.655-26.415 27.076-57.471 27.076-89.24 0-42.601-16.926-83.458-47.050-113.581s-70.979-47.046-113.58-47.046zM481.9 593.51c-15.885 0-31.413-4.71-44.62-13.535s-23.502-21.368-29.58-36.044c-6.079-14.675-7.669-30.824-4.571-46.403s10.748-29.89 21.98-41.122c11.232-11.232 25.542-18.881 41.122-21.98s31.728-1.508 46.403 4.571c14.676 6.078 27.219 16.373 36.044 29.58s13.535 28.735 13.535 44.62c0 21.3-8.462 41.729-23.523 56.79s-35.49 23.524-56.79 23.524z" />
<glyph unicode="&#xe919;" glyph-name="paper-plane" d="M211.931 600.211c-9.525-2.722-18.176-7.884-25.094-14.975s-11.865-15.866-14.351-25.456c-2.486-9.59-2.424-19.663 0.178-29.221 2.602-9.562 7.655-18.274 14.659-25.28l97.065-96.951v-187.358h187.556l97.719-97.579c5.244-5.295 11.482-9.498 18.355-12.369s14.251-4.352 21.7-4.356c4.898 0.009 9.771 0.64 14.511 1.877 9.583 2.415 18.364 7.313 25.455 14.199s12.245 15.518 14.938 25.033l188.727 641.557-641.419-189.122zM227.749 545.506l484.413 142.809-370.821-370.222v113.792l-113.593 113.621zM610.091 163.618l-114.56 114.249h-113.793l370.762 370.45-142.409-484.698z" />
<glyph unicode="&#xe91a;" glyph-name="play" horiz-adv-x="983" d="M809.574 564.851l-605.594 386.621v-983.040l605.349 388.014c17.621 11.076 32.145 26.436 42.226 44.646 10.076 18.211 15.372 38.674 15.397 59.49 0.025 20.812-5.222 41.288-15.258 59.523s-24.527 33.629-42.119 44.745zM765.338 425.791l-479.233-307.2v683.049l479.52-306.135c5.911-3.699 10.781-8.843 14.148-14.95s5.12-12.972 5.091-19.943c-0.029-6.975-1.839-13.824-5.255-19.902-3.416-6.083-8.327-11.186-14.27-14.836v-0.082z" />
<glyph unicode="&#xe91b;" glyph-name="search" horiz-adv-x="983" d="M983.040 27.128l-256.492 256.492c66.626 81.486 99.385 185.463 91.501 290.423-7.889 104.961-55.816 202.876-133.87 273.492s-180.265 108.529-285.488 105.898c-105.224-2.631-205.412-45.605-279.84-120.033s-117.402-174.616-120.033-279.84c-2.631-105.223 35.282-207.435 105.898-285.488s168.53-125.981 273.492-133.87c104.96-7.885 208.937 24.871 290.423 91.501l256.492-256.492 57.917 57.917zM409.6 214.97c-64.808 0-128.161 19.218-182.048 55.222-53.887 36.008-95.886 87.183-120.687 147.059s-31.291 125.759-18.647 189.325c12.644 63.564 43.852 121.951 89.679 167.777s104.214 77.036 167.777 89.679c63.564 12.644 129.45 6.154 189.325-18.647s111.051-66.801 147.059-120.687c36.004-53.887 55.222-117.24 55.222-182.048-0.098-86.876-34.652-170.168-96.084-231.6-61.428-61.428-144.72-95.986-231.596-96.080z" />
<glyph unicode="&#xe91c;" glyph-name="shield-check" horiz-adv-x="975" d="M485.51-24.83l-14.385 6.378c-16.010 7.031-389.851 175.87-389.851 481.607v265.101c0.014 25.512 8.077 50.369 23.041 71.031s36.066 36.076 60.3 44.047l323.008 107.073 323.004-107.073c24.235-7.971 45.339-23.385 60.304-44.047s23.025-45.519 23.040-71.031v-265.101c0-348.526-377.417-477.662-393.509-483.026l-14.953-4.959zM487.624 865.196l-297.286-98.58c-8.088-2.642-15.133-7.776-20.126-14.666s-7.677-15.184-7.668-23.693v-265.101c0-223.247 261.689-368.069 326.987-400.701 65.18 26.21 323.17 146.203 323.17 400.701v265.101c0.010 8.509-2.672 16.803-7.665 23.693s-12.039 12.024-20.129 14.666l-297.282 98.58zM451.497 359.858h-1.341c-10.285 0.161-20.431 2.399-29.825 6.593-9.394 4.189-17.841 10.24-24.829 17.788l-93.704 97.526 58.555 56.158 91.185-95.086 210.528 210.53 57.461-57.458-213.782-213.781c-7.119-7.114-15.579-12.746-24.892-16.569s-19.289-5.759-29.355-5.7z" />
<glyph unicode="&#xe91d;" glyph-name="shopping-bag" horiz-adv-x="983" d="M737.28 706.49c0 65.18-25.891 127.69-71.983 173.779-46.088 46.089-108.597 71.982-173.777 71.982s-127.69-25.892-173.779-71.982c-46.089-46.089-71.981-108.599-71.981-173.779h-245.76v-614.4c0-32.592 12.946-63.844 35.991-86.888s54.299-35.992 86.889-35.992h737.28c32.588 0 63.844 12.947 86.888 35.992s35.992 54.297 35.992 86.888v614.4h-245.76zM491.52 870.33c43.454 0 85.127-17.262 115.851-47.988 30.728-30.726 47.989-72.399 47.989-115.852h-327.68c0 43.453 17.262 85.126 47.988 115.852s72.398 47.988 115.852 47.988zM901.12 92.090c0-10.863-4.317-21.283-11.997-28.963-7.68-7.684-18.1-11.997-28.963-11.997h-737.28c-10.863 0-21.282 4.313-28.963 11.997-7.681 7.68-11.997 18.1-11.997 28.963v532.48h163.84v-81.92h81.92v81.92h327.68v-81.92h81.92v81.92h163.84v-532.48z" />
<glyph unicode="&#xe91e;" glyph-name="shopping-cart" horiz-adv-x="983" d="M983.040 829.37h-809.288l-1.72 14.377c-3.521 29.884-17.884 57.437-40.366 77.436s-51.522 31.053-81.612 31.067h-50.053v-81.92h50.053c10.032-0.001 19.716-3.685 27.213-10.351s12.287-15.853 13.461-25.817l64.922-551.649c3.521-29.884 17.884-57.438 40.366-77.435 22.483-20.001 51.522-31.056 81.612-31.068h541.573v81.92h-541.573c-10.039 0.004-19.727 3.69-27.225 10.367-7.498 6.672-12.284 15.872-13.448 25.842l-5.366 45.711h662.815l88.637 491.52zM825.917 419.77h-603.955l-38.543 327.68h701.604l-59.105-327.68zM286.72-30.79c45.243 0 81.92 36.676 81.92 81.92s-36.677 81.92-81.92 81.92c-45.243 0-81.92-36.676-81.92-81.92s36.677-81.92 81.92-81.92zM696.32-30.79c45.244 0 81.92 36.676 81.92 81.92s-36.676 81.92-81.92 81.92c-45.244 0-81.92-36.676-81.92-81.92s36.676-81.92 81.92-81.92z" />
<glyph unicode="&#xe91f;" glyph-name="shopping-cart-white" d="M1024 832h-843.008l-1.792 14.976c-3.667 31.129-18.629 59.83-42.049 80.662s-53.668 32.347-85.013 32.362h-52.139v-85.333h52.139c10.45-0.001 20.537-3.838 28.346-10.783s12.799-16.513 14.022-26.892l67.626-574.637c3.667-31.13 18.629-59.827 42.049-80.659s53.668-32.346 85.013-32.365h564.136v85.338h-564.136c-10.457 0-20.549 3.84-28.36 10.797-7.811 6.95-12.796 16.531-14.008 26.918l-5.59 47.616h690.43l92.333 512zM860.333 405.333h-629.122l-40.15 341.334h730.84l-61.568-341.334zM298.662-63.994c47.128 0 85.333 38.202 85.333 85.331s-38.205 85.331-85.333 85.331c-47.128 0-85.334-38.202-85.334-85.331s38.205-85.331 85.334-85.331zM725.331-63.994c47.13 0 85.338 38.202 85.338 85.331s-38.208 85.331-85.338 85.331c-47.123 0-85.331-38.202-85.331-85.331s38.208-85.331 85.331-85.331z" />
<glyph unicode="&#xe920;" glyph-name="shuffle" d="M866.106 417.541l-56.306-56.308 91.273-91.313h-15.21c-134.758 0-220.458 61.009-296.518 139.697l-11.947-13.858c-13.061-15.133-26.522-30.703-40.539-46.353 43.294-50.13 96.907-90.313 157.168-117.811 60.266-27.491 125.754-41.643 191.993-41.479h15.053l-91.313-91.313 56.313-56.306 131.133 131.133c14.93 14.937 23.32 35.191 23.32 56.313 0 21.115-8.39 41.37-23.32 56.305l-131.099 131.294zM885.903 668.143h15.176l-91.273-91.312 56.306-56.309 131.133 131.135c14.93 14.935 23.32 35.189 23.32 56.308s-8.39 41.373-23.32 56.309l-131.133 131.134-56.306-56.309 91.273-91.312h-15.217c-197.4 0-305.315-106.325-403.238-218.146-96.728 109.232-213.009 218.146-419.408 218.146v-79.645c177.767 0 273.698-93.025 366.723-199.111-93.024-106.086-188.956-199.112-366.723-199.112v-79.647c231.288 0 349.48 136.832 453.974 257.494 97.723 113.334 190.23 220.376 368.713 220.376z" />
<glyph unicode="&#xe921;" glyph-name="time-fast" horiz-adv-x="983" d="M409.6-30.79h-409.6v81.92h409.6v-81.92zM327.68 214.97h-327.68v-81.92h327.68v81.92zM245.76 378.81h-245.76v-81.92h245.76v81.92zM491.52 952.25c-130.316-0.141-255.254-51.971-347.401-144.119s-143.978-217.086-144.119-347.401h81.92c0 81.011 24.023 160.203 69.030 227.561s108.978 119.858 183.823 150.86c74.843 31.001 157.202 39.113 236.656 23.308s152.437-54.815 209.723-112.099c57.283-57.284 96.293-130.268 112.099-209.722 15.802-79.454 7.692-161.812-23.31-236.655-31.003-74.846-83.501-138.818-150.86-183.824s-146.551-69.030-227.561-69.030v-81.92c130.359 0 255.377 51.786 347.558 143.962 92.176 92.176 143.962 217.199 143.962 347.558s-51.786 255.379-143.962 347.557c-92.18 92.178-217.199 143.963-347.558 143.963v0zM450.56 665.53v-221.757l134.881-134.881 57.917 57.917-110.879 110.879v187.842h-81.92z" />
<glyph unicode="&#xe922;" glyph-name="user" horiz-adv-x="983" d="M860.16-30.79h-81.92v206.561c-0.033 32.113-12.804 62.902-35.512 85.606-22.704 22.708-53.494 35.48-85.606 35.512h-331.203c-32.113-0.033-62.901-12.804-85.608-35.512-22.707-22.704-35.478-53.494-35.511-85.606v-206.561h-81.92v206.561c0.065 53.83 21.477 105.435 59.541 143.499 38.063 38.060 89.669 59.474 143.498 59.539h331.203c53.83-0.066 105.435-21.479 143.499-59.539 38.060-38.064 59.474-89.67 59.539-143.499v-206.561zM491.52 460.73c-48.607 0-96.122 14.414-136.537 41.419s-71.915 65.386-90.515 110.293c-18.601 44.906-23.468 94.321-13.985 141.994s32.889 91.463 67.259 125.833c34.37 34.37 78.161 57.776 125.835 67.259 47.669 9.483 97.083 4.616 141.992-13.985s83.288-50.101 110.293-90.516c27.005-40.415 41.419-87.93 41.419-136.537-0.066-65.16-25.977-127.632-72.053-173.707s-108.548-71.987-173.707-72.053zM491.52 870.33c-32.403 0-64.082-9.609-91.025-27.612s-47.943-43.591-60.344-73.529c-12.401-29.938-15.645-62.881-9.323-94.662s21.926-60.976 44.84-83.889c22.913-22.913 52.106-38.518 83.887-44.841 31.785-6.32 64.725-3.076 94.663 9.325s55.529 33.4 73.531 60.344c18.002 26.943 27.611 58.62 27.611 91.025 0 43.453-17.261 85.126-47.989 115.852-30.724 30.726-72.397 47.988-115.851 47.988z" />
<glyph unicode="&#xe924;" glyph-name="star-empty" d="M512 960l170.667-341.333 341.333-42.667-234.951-262.827 64.284-377.173-341.333 170.667-341.333-170.667 63.716 377.173-234.382 262.827 341.333 42.667 170.667 341.333zM512 832.569l-133.12-266.809-264.533-32.996 180.907-202.524-49.493-292.978 266.24 133.12 266.24-133.12-49.493 292.978 180.907 202.524-264.533 32.996-133.12 266.809z" />
<glyph unicode="&#xe925;" glyph-name="star-full" d="M512 960l-170.667-341.333-341.333-42.667 234.382-262.827-63.716-377.173 341.333 170.667 341.333-170.667-64.284 377.173 234.951 262.827-341.333 42.667z" />
<glyph unicode="&#xe926;" glyph-name="time-forward-ten" horiz-adv-x="975" d="M893.972 869.504v-136.614c-46.631 70.225-110.67 127.162-185.871 165.256-75.196 38.094-158.988 56.042-243.19 52.094-84.204-3.948-165.947-29.658-237.251-74.622s-129.734-107.643-169.589-181.923c-39.854-74.28-59.771-157.624-57.808-241.9 1.964-84.27 25.741-166.595 69.012-238.943 43.271-72.343 104.557-132.233 177.878-173.826s156.173-63.468 240.471-63.488v81.271c-71.323 0.029-141.379 18.837-203.13 54.521-61.751 35.689-113.022 86.996-148.66 148.777-35.638 61.776-54.389 131.847-54.368 203.171 0.021 71.319 18.814 141.378 54.489 203.136s86.977 113.037 148.749 148.687c61.772 35.649 131.84 54.413 203.16 54.404s141.385-18.788 203.147-54.452 113.054-86.956 148.714-148.722h-148.929v-81.27h203.176c21.553 0 42.223 8.562 57.466 23.803s23.806 35.913 23.806 57.467v203.174h-81.271zM528.262 422.522h-243.81v81.268h162.54v203.175h81.27v-284.442zM853.333-24.464c-32.329 0-63.337 12.844-86.201 35.703-22.86 22.864-35.703 53.867-35.703 86.201v121.905c0 32.329 12.844 63.337 35.703 86.201 22.864 22.86 53.872 35.703 86.201 35.703s63.337-12.844 86.201-35.703c22.86-22.864 35.703-53.872 35.703-86.201v-121.905c0-32.334-12.844-63.337-35.703-86.201-22.864-22.86-53.872-35.703-86.201-35.703zM853.333 259.979c-10.776 0-21.114-4.281-28.735-11.903-7.617-7.617-11.898-17.954-11.898-28.731v-121.905c0-10.776 4.281-21.114 11.898-28.735 7.621-7.617 17.959-11.898 28.735-11.898s21.114 4.281 28.735 11.898c7.617 7.621 11.898 17.959 11.898 28.735v121.905c0 10.776-4.281 21.114-11.898 28.731-7.621 7.621-17.959 11.903-28.735 11.903zM690.79-24.469h-81.267v226.987l-52.541-52.541-57.461 57.461 121.905 121.905c5.686 5.681 12.922 9.548 20.807 11.113 7.88 1.57 16.048 0.766 23.474-2.311 7.422-3.072 13.77-8.28 18.232-14.96 4.467-6.68 6.851-14.536 6.851-22.572v-325.081z" />
<glyph unicode="&#xe927;" d="M313.443 82.577l-86.71-18.581-18.581-12.387-18.581-24.774-12.387-18.581 37.161-12.387c18.581-6.194 43.355-12.387 55.742-18.581 9.91-4.955 107.355-6.194 154.838-6.194 208.103 4.955 367.484 150.71 421.161 222.968l74.323 123.871 30.968 117.677 12.387 167.226c-10.323 43.356-30.968 131.305-30.968 136.259s-12.387 22.71-18.581 30.968l-37.161-6.194-12.387-43.355v-12.387c-2.065-12.387-6.194-38.4-6.194-43.355s-16.516-47.484-24.774-68.13l-30.968-86.71-61.935-105.29-92.903-117.677-86.71-80.516-130.065-74.323-117.677-49.548z" />
<glyph unicode="&#xe928;" d="M940.124 774.664l-35.325 125.395c-4.879 17.311-19.582 29.743-37.462 31.674l-26.862 2.9c-12.341 1.336-24.718-2.658-33.957-10.949s-14.541-20.167-14.551-32.582l-0.059-114.076c-14.713-52.458-34.149-103.429-57.929-152.298-9.576 22.072-21.21 43.341-34.869 63.484-13.893 20.46-29.349 39.517-45.938 56.64-31.774 32.804-80.278 44.005-123.584 28.529-30.254-10.804-61.651-25.696-93.346-44.239-1.45 48.886-12.82 90.525-22.878 118.264-12.899 35.59-30.618 67.415-46.248 83.055-21.986 21.985-60.81 13.801-81.908-7.29-17.774-17.77-27.238-49.817 4.583-81.651 17.497-17.497 32.009-53.804 41.71-103.706-26.484 14.546-52.659 26.51-78.018 35.565-43.283 15.47-91.795 4.273-123.581-28.523-9.818-10.128-19.317-21.030-28.227-32.401-4.947-6.312-3.839-15.441 2.472-20.386 6.314-4.945 15.439-3.841 20.386 2.472 8.285 10.571 17.106 20.698 26.221 30.099 23.879 24.64 60.365 33.035 92.958 21.389 29.031-10.366 59.301-24.777 89.972-42.83 35.681-20.997 80.014-20.997 115.702 0 30.664 18.051 60.931 32.46 89.97 42.83 32.606 11.652 69.090 3.255 92.956-21.387 15.426-15.927 29.818-33.673 42.767-52.743 17.299-25.512 31.123-52.946 41.247-81.601-42.189-78.135-95.744-150.251-159.097-213.603-95.774-95.787-211.694-169.251-338.118-214.772-79.237 49.026-136.038 125.301-160.271 215.526-24.806 92.361-12.589 188.508 34.403 270.727 3.979 6.963 1.56 15.834-5.402 19.813-6.961 3.979-15.832 1.559-19.813-5.402-50.816-88.91-64.040-192.85-37.232-292.663 24.119-89.805 78.126-166.81 153.444-219.764-8.293-2.61-16.62-5.117-24.992-7.488-0.031-0.007-0.062-0.020-0.093-0.026-0.015-0.003-0.031-0.010-0.046-0.013-0.010-0.003-0.018-0.007-0.027-0.013-2.887-0.823-5.477-2.524-7.381-4.915l-50.95-64.040c-4.546-5.715-4.144-13.913 0.941-19.152l57.484-59.253c1.462-1.51 3.224-2.652 5.142-3.399 0.046-0.020 0.085-0.053 0.133-0.073 68.743-26.095 141.176-39.272 214.002-39.272 40.692 0 81.514 4.116 121.866 12.394 115.484 23.684 220.788 80.463 304.524 164.187 60.198 60.201 106.083 130.699 136.377 209.54 2.877 7.485-0.859 15.885-8.347 18.762-7.492 2.877-15.889-0.862-18.762-8.347-28.827-75.020-72.496-142.111-129.804-199.419-79.704-79.694-179.923-133.731-289.822-156.276-99.87-20.487-202.676-14.184-298.754 18.098l41.772 43.061c5.526 5.691 5.456 14.765-0.151 20.374l-46.806 46.823c145.354 45.317 278.811 126.025 387.226 234.456 112.594 112.594 195.247 252.046 239.507 403.893l98.882-4.056c41.852-112.287 47.451-237.315 15.641-353.182-2.124-7.733 2.428-15.723 10.161-17.847 7.73-2.127 15.723 2.425 17.847 10.161 34.218 124.647 27.212 259.391-19.691 379.525zM363.893 721.112c-10.669 68.656-28.672 116.059-53.557 140.946-14.773 14.779-16.359 28.81-4.587 40.578 11.917 11.919 32.527 15.599 40.831 7.295 21.329-21.346 60.931-100.732 60.769-191.93-14.445-2.728-29.435-1.706-43.457 3.111zM169.6 26.228l-38.173 39.348 32.874 41.317 42.406-42.42-37.106-38.245zM825.915 902.068c3.161 2.834 7.231 4.149 11.442 3.69l26.862-2.9c6.025-0.651 10.98-4.841 12.625-10.676l30.066-106.728-85.953 3.526 0.053 102.107c0.007 4.248 1.747 8.147 4.905 10.982z" />
<glyph unicode="&#xe929;" d="M849.616 723.158c-21.815-155.875-99.675-307.566-219.238-427.129-99.503-99.503-220.229-169.905-349.131-203.601-7.76-2.031-12.405-9.966-10.376-17.722 1.706-6.53 7.594-10.854 14.039-10.854 1.216 0 2.451 0.155 3.681 0.479 133.888 35.001 259.176 108.019 362.326 211.162 123.996 124 204.78 281.554 227.463 443.642 1.11 7.942-4.426 15.282-12.371 16.394-7.934 1.109-15.284-4.426-16.394-12.37z" />
<glyph unicode="&#xe92a;" d="M672.662 318.444l-24.774-55.742 18.581-37.161v-18.581l6.194-24.774c8.258-4.129 26.013-12.387 30.968-12.387s18.581-4.129 24.774-6.194c0-6.194-1.239-19.819-6.194-24.774s-14.452-6.194-18.581-6.194c-4.129-8.258-12.387-26.013-12.387-30.968 0-6.194-6.194-24.774-6.194-30.968 0-4.955-12.387-26.839-18.581-37.161l6.194-55.742c18.581-2.065 56.981-6.194 61.935-6.194h99.097c33.032 10.323 99.097 32.206 99.097 37.161s24.774 14.452 37.161 18.581l24.774 49.548-24.774 55.742-68.129 136.258-12.387 6.194c-8.258-2.065-26.013-4.955-30.968 0-6.194 6.194-24.774 6.194-24.774 12.387s-12.387 6.194-12.387 12.387c0 6.194-6.194 12.387-6.194 18.581v24.774c0 6.194 6.194 12.387 6.194 18.581 0 4.955 12.387 10.323 18.581 12.387v18.581c-4.129 8.258-12.387 26.013-12.387 30.968 0 6.194-18.581 18.581-24.774 18.581s-24.774 6.194-30.968 6.194c-4.955 0-22.71-8.258-30.968-12.387l-24.774-43.355-43.355-74.323z" />
<glyph unicode="&#xe92b;" d="M424.92 572.38l-105.291 6.194-6.194-24.774v-55.742l6.194-86.71c6.194-2.065 21.059-7.432 30.969-12.387 12.387-6.194 49.548 0 55.742 0s86.71 6.194 92.903 12.387c6.194 6.194 12.387 18.581 18.581 24.774s6.194 24.774 6.194 30.968v49.548c0 12.387-6.194 30.968-6.194 37.161 0 4.955-12.387 14.452-18.581 18.581h-74.323z" />
<glyph unicode="&#xe92c;" d="M1006.952 100.117l-96.619 192.235c-2.041 4.060-5.863 6.93-10.329 7.756s-9.064-0.486-12.42-3.544c-6.821-6.22-15.7-9.645-24.999-9.645-20.546 0-37.26 16.724-37.26 37.277 0 17.761 12.632 33.138 30.040 36.563 4.449 0.879 8.235 3.785 10.23 7.858 1.998 4.076 1.972 8.849-0.063 12.902l-24.332 48.432c-11.677 23.215-35.074 37.637-61.057 37.64-0.003 0-0.003 0-0.007 0-2.51 0-4.988-0.175-7.442-0.439-0.638 35.857-1.562 71.763-2.785 106.991-1.232 35.592-11.697 70.356-30.267 100.534-4.205 6.828-13.147 8.957-19.971 4.753-6.828-4.202-8.955-13.144-4.753-19.97 15.938-25.899 24.92-55.747 25.977-86.325 1.328-38.152 2.306-77.107 2.937-115.933-10.366-6.491-18.984-15.786-24.744-27.235l-71.019-141.309c-27.493 42.727-65.989 75.872-110.896 75.872-78.336 0-137.16-100.818-152.1-177.479h-0.938c-7.66 39.312-26.862 84.962-54.318 120.128-0.198 27.661-0.201 55.448-0.033 83.291 15-0.297 30.033-0.492 45.105-0.492 37.663 0 75.482 0.928 113 2.775 25.435 1.252 46.077 20.513 49.086 45.799 4.060 34.149 4.060 68.776 0 102.922-3.009 25.286-23.648 44.551-49.076 45.799-50.767 2.497-102.179 3.293-153.071 2.405 7.568 59.597 44.494 110.848 99.42 136.784h205.87c14.438-6.817 27.912-15.573 40.065-26.112 2.745-2.383 6.131-3.55 9.503-3.55 4.063 0 8.103 1.696 10.973 5.005 5.252 6.056 4.598 15.225-1.457 20.478-6.54 5.671-13.428 10.879-20.586 15.656 12.556 9.857 20.642 25.158 20.642 42.32 0 24.635-16.648 45.44-39.279 51.792v51.333c-0.007 33.418-27.192 60.607-60.614 60.607h-124.376c-33.419 0-60.608-27.188-60.608-60.607v-51.337c-22.634-6.352-39.282-27.157-39.282-51.792 0-17.16 8.083-32.457 20.635-42.314-21.917-14.617-40.93-33.374-55.904-55.379-21.804-32.038-34.038-69.531-35.38-108.419-2.723-78.59-4.003-158.033-3.824-236.66-20.319 16.642-43.448 27.047-68.592 27.047-35.296 0-71.012-21.61-100.569-60.849-4.825-6.402-3.544-15.505 2.861-20.328 6.404-4.826 15.505-3.544 20.328 2.861 13.866 18.406 42.357 49.284 77.382 49.284 27.281 0 55.94-19.106 80.701-53.793 19.606-27.47 34.645-61.836 41.774-94.654h-244.963c3.709 17.031 9.606 34.681 17.379 51.861 3.304 7.307 0.062 15.905-7.243 19.212-7.303 3.303-15.904 0.063-19.21-7.244-9.532-21.071-16.504-42.889-20.518-63.828h-19.932c-20.766 0-37.659-16.893-37.659-37.66 0-20.764 16.895-37.657 37.659-37.657h7.134c2.41-22.241 6.472-44.402 10.446-65.952 2.832-15.357 5.76-31.239 7.986-46.714 3.016-20.9 19.723-37.158 40.638-39.546 38.060-4.324 71.916-6.488 105.785-6.488 33.819 0 67.652 2.154 105.681 6.471 6.943 0.789 13.401 3.118 19.073 6.603 14.815-8.582 31.506-13.081 48.888-13.081l131.498 0.010c33.881-0.003 67.752 2.16 105.832 6.488 10.085 1.15 19.172 5.549 26.238 12.116 35.916-12.4 73.275-18.495 110.466-18.495 75.647 0 150.578 25.131 211.116 73.272 22.016 17.491 28.807 48.485 16.149 73.698zM443.412 883.385c0 17.41 14.164 31.574 31.576 31.574h124.376c17.411 0 31.576-14.164 31.576-31.574v-49.33h-187.527v49.33zM428.897 805.023h216.556c13.659 0 24.768-11.11 24.768-24.765 0-13.657-11.112-24.767-24.768-24.767h-216.556c-13.659 0-24.768 11.11-24.768 24.767 0 13.655 11.112 24.765 24.768 24.765zM486.466 558.272c11.228-0.552 20.345-9.061 21.672-20.229 3.789-31.873 3.789-64.192 0-96.064-1.328-11.168-10.445-19.677-21.682-20.229-51.976-2.56-104.524-3.307-156.437-2.273 0.498 47.081 1.512 94.234 3.045 141.127 50.992 0.938 102.519 0.168 153.402-2.332zM745.019 416.923c6.818 13.547 19.942 21.633 35.113 21.633h0.003c15.175-0.003 28.305-8.096 35.12-21.646l16.972-33.779c-21.577-11.148-35.936-33.69-35.936-58.936 0-36.563 29.739-66.312 66.292-66.312 10.237 0 20.196 2.339 29.187 6.755l81.216-161.587c-0.086-0.073-0.165-0.149-0.254-0.218-40.831-32.477-89.656-54.199-141.193-62.817-46.46-7.772-94.393-4.806-139.429 8.479 3.812 20.698 7.63 41.931 9.936 63.24h7.142c20.764 0 37.66 16.893 37.66 37.657 0 20.767-16.896 37.66-37.66 37.66h-19.928c-4.41 22.637-12.648 47.375-24.084 71.006l79.842 158.865zM456.46 281.699c24.764 34.694 53.426 53.8 80.704 53.8 27.288 0 55.95-19.106 80.711-53.8 19.605-27.466 34.641-61.83 41.766-94.651h-244.954c7.125 32.818 22.165 67.181 41.773 94.651zM51.396 149.388c0 4.757 3.871 8.628 8.626 8.628h649.167c4.757 0 8.625-3.871 8.625-8.628 0-4.753-3.868-8.625-8.625-8.625h-649.167c-4.757 0-8.626 3.871-8.626 8.625zM375.778-11.132c1.259 3.24 2.197 6.646 2.705 10.2 1.358 9.52 2.97 20.86 4.651 32.96 0.116 0.819 0.178 1.272 1.467 1.272s1.351-0.453 1.463-1.262c1.688-12.113 3.297-23.453 4.658-32.986 0.849-5.9 2.828-11.413 5.658-16.367-7.185 0.961-14.111 3.042-20.602 6.184zM639.696-11.634c-73.715-8.377-131.164-8.384-204.902-0.020-7.901 0.902-14.21 7.003-15.334 14.822-1.354 9.49-2.96 20.794-4.641 32.887-2.17 15.472-14.597 26.28-30.221 26.277-15.621 0-28.048-10.805-30.218-26.29-1.681-12.080-3.283-23.387-4.634-32.857-1.126-7.835-7.436-13.936-15.334-14.838-73.749-8.364-131.201-8.357-204.901 0.020-7.81 0.892-14.056 6.996-15.188 14.841-2.307 16.037-5.288 32.203-8.172 47.837-3.683 19.971-7.44 40.478-9.782 60.687h576.465c-2.349-20.265-6.114-40.828-9.804-60.852-2.874-15.585-5.843-31.698-8.152-47.685-1.13-7.842-7.376-13.936-15.182-14.828zM972.734 49.142c-81.282-64.638-190.94-83.852-289.402-51.6 0.089 0.502 0.211 0.994 0.284 1.503 0.988 6.848 2.124 13.778 3.316 20.705 30.33-8.635 61.81-13.015 93.349-13.015 18.743 0 37.505 1.543 56.049 4.641 53.634 8.972 104.56 30.938 147.879 63.656 0.558-9.771-3.505-19.558-11.475-25.891z" />
<glyph unicode="&#xe92d;" d="M793.666 105.168c9.781-14.23 24.517-23.793 41.495-26.938 3.97-0.737 7.951-1.1 11.905-1.1 12.949 0 25.583 3.898 36.484 11.393 14.23 9.781 23.793 24.52 26.938 41.495s-0.512 34.162-10.293 48.389c-9.784 14.227-24.52 23.793-41.495 26.935-16.982 3.145-34.162-0.512-48.389-10.293s-23.793-24.517-26.938-41.492c-3.145-16.979 0.512-34.165 10.293-48.389zM811.92 148.269c1.731 9.355 7.003 17.471 14.838 22.858 6.005 4.129 12.965 6.276 20.097 6.276 2.177 0 4.373-0.201 6.557-0.608 9.351-1.731 17.471-7 22.862-14.838 5.388-7.835 7.399-17.302 5.668-26.654-1.731-9.355-7.003-17.471-14.838-22.858-7.839-5.391-17.306-7.403-26.654-5.672-9.351 1.731-17.471 7-22.858 14.838-5.391 7.839-7.406 17.306-5.672 26.657z" />
<glyph unicode="&#xe92e;" d="M732.702 192.238c2.897-0.538 5.8-0.803 8.681-0.803 9.441 0 18.653 2.844 26.601 8.304 10.372 7.135 17.345 17.877 19.634 30.254 2.296 12.377-0.373 24.903-7.502 35.278-7.132 10.375-17.877 17.349-30.251 19.641-25.55 4.727-50.189-12.209-54.919-37.759-4.734-25.55 12.205-50.186 37.756-54.916zM723.492 241.869c1.813 9.807 11.274 16.315 21.084 14.495 4.75-0.882 8.876-3.558 11.614-7.541s3.762-8.793 2.884-13.543c-0.882-4.753-3.558-8.879-7.541-11.614-3.984-2.738-8.787-3.762-13.547-2.884-9.807 1.82-16.311 11.277-14.495 21.088z" />
<glyph unicode="&#xe92f;" d="M616.943 523.816c0-123.142-105.372-222.968-235.355-222.968s-235.355 99.826-235.355 222.968c0 123.142 105.372 222.968 235.355 222.968s235.355-99.826 235.355-222.968z" />
<glyph unicode="&#xe930;" d="M384.377 282.376c141.533 0 256.677 106.509 256.677 237.429s-115.147 237.432-256.677 237.432-256.675-106.511-256.675-237.432c0-130.92 115.144-237.429 256.675-237.429zM384.377 728.177c125.509 0 227.615-93.475 227.615-208.372s-102.109-208.371-227.615-208.371c-125.507 0-227.614 93.475-227.614 208.371s102.107 208.372 227.614 208.372z" />
<glyph unicode="&#xe931;" d="M462.977 556.646c0-23.602 19.202-42.807 42.807-42.807s42.807 19.205 42.807 42.807c0 23.605-19.202 42.807-42.807 42.807s-42.807-19.202-42.807-42.807zM505.783 570.394c7.578 0 13.745-6.167 13.745-13.748 0-7.578-6.167-13.745-13.745-13.745-7.581 0-13.748 6.167-13.748 13.745 0 7.581 6.167 13.748 13.748 13.748z" />
<glyph unicode="&#xe932;" d="M436.475 584.734c23.605 0 42.807 19.205 42.807 42.807 0 23.603-19.202 42.807-42.807 42.807-23.602 0-42.807-19.203-42.807-42.807 0-23.602 19.205-42.807 42.807-42.807zM436.475 641.288c7.581 0 13.745-6.166 13.745-13.744 0-7.581-6.164-13.748-13.745-13.748-7.578 0-13.745 6.167-13.745 13.748 0 7.578 6.167 13.744 13.745 13.744z" />
<glyph unicode="&#xe933;" d="M262.967 513.84c23.605 0 42.808 19.205 42.808 42.807 0 23.605-19.203 42.807-42.808 42.807-23.603 0-42.806-19.202-42.806-42.807 0-23.602 19.203-42.807 42.806-42.807zM262.967 570.394c7.581 0 13.748-6.167 13.748-13.748 0-7.578-6.166-13.745-13.748-13.745-7.579 0-13.746 6.167-13.746 13.745 0 7.581 6.167 13.748 13.746 13.748z" />
<glyph unicode="&#xe934;" d="M332.275 584.734c23.602 0 42.807 19.205 42.807 42.807 0 23.603-19.205 42.807-42.807 42.807-23.604 0-42.807-19.203-42.807-42.807 0-23.602 19.203-42.807 42.807-42.807zM332.275 641.288c7.578 0 13.745-6.166 13.745-13.744 0-7.581-6.167-13.748-13.745-13.748-7.58 0-13.746 6.167-13.746 13.748 0 7.578 6.167 13.744 13.746 13.744z" />
<glyph unicode="&#xe935;" d="M310.996 526.68c-2.019-9.5-7.414-18.188-15.603-25.124-18.393-15.581-28.007-38.341-26.376-62.444 2.542-37.544 32.798-67.515 70.376-69.715 12.394-0.72 24.834 1.622 35.985 6.788 5.635 2.61 12.364 2.61 17.996 0 9.83-4.552 20.662-6.914 31.579-6.914 1.467 0 2.94 0.040 4.41 0.126 37.577 2.203 67.832 32.173 70.375 69.718 1.632 24.104-7.984 46.863-26.373 62.441-8.192 6.937-13.586 15.624-15.604 25.121-3.505 16.49-12.238 30.984-25.263 41.918-27.437 23.027-68.806 23.027-96.239 0-13.024-10.937-21.758-25.428-25.262-41.915zM354.945 546.337c16.777 14.085 42.086 14.085 58.867 0 8.014-6.725 13.378-15.611 15.522-25.699 3.369-15.852 12.096-30.119 25.243-41.254 11.274-9.55 17.167-23.512 16.163-38.308-1.556-22.977-20.074-41.32-43.077-42.668-7.723-0.449-15.159 0.941-22.072 4.146-6.742 3.125-13.976 4.684-21.213 4.684s-14.475-1.562-21.213-4.684c-6.917-3.204-14.346-4.601-22.072-4.146-23.004 1.348-41.524 19.691-43.079 42.664-1.002 14.798 4.89 28.761 16.163 38.311 13.147 11.135 21.878 25.402 25.248 41.254 2.144 10.085 7.508 18.97 15.522 25.699z" />
<glyph unicode="&#xe936;" d="M956.089 179.441c30.859 39.374 47.844 88.358 47.844 138.551 0 124.016-100.897 224.91-224.91 224.91-23.185 0-45.839-3.482-67.597-10.349-1.566 71.839-5.292 143.583-11.198 214.942-2.114 25.349 3.419 50.077 15.998 71.516 17.091 29.156 32.398 68.982 8.235 93.147-10.356 10.35-36.907 25.353-147.439 36.105-68.994 6.711-144.754 9.102-192.651 9.102-47.893 0-123.656-2.391-192.652-9.104-110.531-10.752-137.081-25.755-147.442-36.109-24.161-24.159-8.854-63.986 8.242-93.147 12.576-21.435 18.107-46.164 15.993-71.507-0.82-9.799-1.631-20.232-2.55-32.837-0.585-8.003 5.431-14.966 13.434-15.549 8.005-0.587 14.966 5.43 15.549 13.434 0.913 12.498 1.715 22.836 2.526 32.532 2.614 31.351-4.264 62-19.885 88.629-0.794 1.356-1.538 2.683-2.278 4.008 43.99 18.523 187.646 30.603 309.066 30.603 46.212 0 119.55-2.278 186.771-8.67 74.237-7.060 107.441-15.834 122.249-22.007-0.727-1.3-1.457-2.602-2.236-3.933-15.624-26.631-22.505-57.279-19.892-88.624 15.066-181.992 15.859-366.51 2.444-548.687-31.176 0.007-62.358-0.241-93.376-0.747-3.984 49.429-45.482 88.434-95.919 88.434-53.060 0-96.23-43.17-96.23-96.23 0-23.182 8.301-45.291 23.169-62.616-3.719-4.334-7.026-8.968-9.896-13.841-86.913-0.638-174.962 3.604-261.832 12.658-22.712 2.355-40.545 20.645-42.405 43.5-13.248 161.666-15.28 325.665-6.041 487.443 0.457 8.011-5.667 14.877-13.678 15.336-8.009 0.454-14.877-5.667-15.336-13.678-9.317-163.116-7.267-328.469 6.089-491.463 2.991-36.788 31.748-66.246 68.366-70.042 82.184-8.565 165.401-12.892 247.782-12.889 1.946 0 3.885 0.026 5.827 0.033-1.335-6.412-2.045-12.992-2.045-19.671 0-53.063 43.167-96.23 96.226-96.23 50.44 0 91.939 39.001 95.919 88.434 61.113-1.004 122.86-1.004 183.957 0 3.984-49.433 45.482-88.434 95.919-88.434 15.486 0 30.895 3.772 44.564 10.911 7.112 3.713 9.867 12.493 6.154 19.608-3.716 7.112-12.496 9.87-19.605 6.151-9.672-5.047-20.14-7.607-31.113-7.607-37.036 0-67.168 30.132-67.168 67.168 0 1.681 0.089 3.515 0.281 5.767 0.347 4.103-1.064 8.156-3.875 11.158-2.814 3.003-6.768 4.674-10.884 4.595-70.494-1.348-141.989-1.348-212.5 0-4.093 0.076-8.066-1.592-10.881-4.595s-4.222-7.056-3.875-11.158c0.188-2.24 0.277-4.073 0.277-5.767 0-37.036-30.132-67.168-67.168-67.168s-67.168 30.132-67.168 67.168c0 19.892 8.763 38.658 24.047 51.487 3.287 2.761 5.189 6.834 5.189 11.129s-1.899 8.367-5.189 11.129c-15.284 12.83-24.047 31.595-24.047 51.487 0 37.036 30.132 67.168 67.168 67.168s67.168-30.132 67.168-67.168c0-1.695-0.089-3.531-0.277-5.771-0.347-4.099 1.060-8.152 3.875-11.155 2.814-3.006 6.785-4.684 10.881-4.595 70.507 1.344 142.006 1.344 212.5 0 4.122-0.089 8.070 1.589 10.884 4.595 2.811 3.003 4.222 7.056 3.875 11.155-0.192 2.256-0.281 4.089-0.281 5.771 0 37.036 30.132 67.168 67.168 67.168 37.049 0 67.191-30.132 67.191-67.168 0-19.899-8.77-38.661-24.064-51.481-3.29-2.761-5.193-6.838-5.193-11.135s1.899-8.374 5.193-11.135c15.294-12.82 24.064-31.585 24.064-51.481 0-8.483-1.559-16.744-4.631-24.556-2.94-7.469 0.737-15.902 8.202-18.842 7.469-2.937 15.905 0.737 18.842 8.202 4.41 11.214 6.646 23.053 6.646 35.193 0 23.189-8.304 45.294-23.179 62.616 13.068 15.215 21.058 34.119 22.812 54.199zM384.373 897.382c-2.626 0-242.45-0.419-320.809-33.375-4.003 12.907-3.716 22.619 1.259 27.594 3.931 3.929 24.903 17.541 129.709 27.737 67.961 6.61 142.627 8.966 189.837 8.966 47.213 0 121.876-2.356 189.84-8.966 104.805-10.196 125.777-23.808 129.704-27.733 4.978-4.979 5.269-14.689 1.265-27.596-78.362 32.953-318.173 33.373-320.806 33.373zM860.213 284.087c-50.44 0-91.939-39.001-95.919-88.434-20.427 0.337-40.934 0.515-61.457 0.628 7.416 101.488 10.478 203.684 9.124 305.776 21.418 7.822 43.93 11.783 67.062 11.783 107.989 0 195.848-87.856 195.848-195.848 0-33.548-8.704-66.481-24.896-95.48-13.943 35.982-48.911 61.575-89.762 61.575z" />
<glyph unicode="&#xe937;" d="M303.984 237.928c-29.729 4.955-45.419-6.194-49.548-12.387l-6.194-6.194c-6.194-8.258-18.581-26.013-18.581-30.968v-37.161c0-6.194 0-24.774 6.194-37.161s6.194-18.581 12.387-24.774c6.194-6.194 12.387-12.387 18.581-12.387s37.161-6.194 43.355-6.194h68.128c18.581 0 24.774 6.194 37.161 6.194s24.774 6.194 24.774 12.387c0 6.194 6.194 12.387 12.387 18.581s0 18.581 6.194 28.794c6.194 10.214 0 14.561 0 20.754v30.968c0 6.194-6.194 12.387-6.194 18.581s-12.387 12.387-18.581 18.581c-4.955 4.955-18.581 10.323-24.774 12.387-22.71-2.065-75.561-4.955-105.289 0z" />
<glyph unicode="&#xe938;" d="M855.208 559.993c-89.187-34.684-260.129-14.452-334.452 0l-18.581-12.387-30.968-49.548-18.581-43.355c19.819-4.955 78.452-55.742 105.29-80.516l18.581-37.161c44.594-4.955 55.742-43.355 55.742-61.935l6.194-130.065c84.232-24.774 278.71 14.452 365.419 37.161 4.955 9.91-14.452 115.613-24.774 167.226-24.774 74.323-92.903 171.355-123.871 210.581z" />
<glyph unicode="&#xe939;" d="M943.094 461.913c-29.584 54.064-58.989 89.002-69.582 100.831v79.8l137.424 112.841c3.27 2.688 5.209 6.67 5.302 10.905s-1.671 8.298-4.826 11.124l-103.976 93.197c-5.972 5.35-15.149 4.847-20.5-1.12-5.355-5.969-4.849-15.148 1.12-20.499l91.38-81.905-105.918-86.971v59.368c0 8.017-6.497 14.517-14.518 14.517s-14.518-6.5-14.518-14.517l-0.007-170.129c-103.652-16.777-208.556-16.774-312.204 0.003v170.126c0 8.017-6.497 14.517-14.518 14.517s-14.518-6.5-14.518-14.517v-59.374l-105.925 86.977 113.003 101.301c16.625 14.907 38.093 21.103 58.754 18.649 4.255-18.275 14.025-56.609 29.029-94.798 24.655-62.753 53.413-100.268 85.474-111.5 1.556-0.544 3.178-0.817 4.8-0.817s3.244 0.273 4.796 0.817c32.061 11.232 60.822 48.747 85.484 111.498 14.977 38.117 24.738 76.35 29.009 94.67 12.79 1.529 26-0.182 38.278-5.439 7.376-3.157 15.905 0.263 19.060 7.632 3.158 7.371-0.261 15.903-7.63 19.058-37.293 15.966-80.767 8.633-110.77-18.676l-13.398-12.194c-25.557-23.273-64.089-23.273-89.64 0l-13.395 12.194c-39.553 36.009-99.414 36.232-139.234 0.521l-125.599-112.591c-3.155-2.826-4.919-6.891-4.826-11.124 0.092-4.235 2.031-8.216 5.302-10.905l137.424-112.841v-79.786c-9.517-10.593-33.974-39.516-60.043-83.866-22.079 11.763-45.426 23.377-69.077 35.136-20.668 10.276-41.485 20.629-61.467 31.143 19.529 24.454 34.595 52.138 41.195 84.59 10.088 49.595-4.667 93.896-40.485 121.545-33.956 26.211-80.717 32.055-116.364 14.54-19.108-9.387-51.163-33.752-51.163-91.44 0-36.516 23.19-71.036 70.899-105.535 14.923-10.792 31.701-21.243 49.558-31.443-22.139-21.775-47.547-41.158-71.55-59.465-51.678-39.417-100.707-76.843-101.975-127.267-31.615-7.581-56.009-33.944-60.256-67.151-9.655-75.604-9.655-152.269 0-227.876 4.878-38.123 36.321-67.257 74.769-69.272 77.089-4.020 154.721-6.028 232.355-6.028 77.629 0 155.268 2.012 232.359 6.028 38.459 2.018 69.893 31.153 74.745 69.272 2.894 22.604 4.899 45.304 6.061 68.040 11.812-0.353 23.72-0.545 35.576-0.545 189.509 0 313.152 44.343 318.325 46.229 5.728 2.094 9.54 7.541 9.54 13.639 0.003 120.006-39.774 217.897-73.143 278.885zM624.016 855.829c36.682-33.425 92.031-33.425 128.737-0.004l13.395 12.192c2.722 2.478 5.599 4.725 8.602 6.742-5.044-19.232-12.777-45.604-23.113-71.898-24.196-61.576-47.045-84.65-63.26-92.685-16.212 8.035-39.057 31.108-63.25 92.685-10.332 26.298-18.069 52.688-23.113 71.927 2.989-2.019 5.87-4.272 8.615-6.769l13.388-12.19zM174.871 674.411c0 31.546 12.078 54.155 34.931 65.383 9.558 4.696 20.48 6.974 31.722 6.974 18.786 0 38.459-6.366 54.099-18.438 15.703-12.121 40.45-40.293 29.777-92.775-5.851-28.769-20.167-53.797-38.849-76.236-62.741 35.156-111.68 72.485-111.68 115.093zM108.789 323.809c25.876 1.344 51.763 2.468 76.94 3.34 8.013 0.277 14.282 6.996 14.004 15.010s-6.947 14.257-15.010 14.006c-20.533-0.71-41.535-1.595-62.617-2.623 3.74 35.331 44.173 66.203 90.245 101.34 27.065 20.645 55.796 42.562 80.492 67.937 22.245-11.855 45.473-23.407 68.347-34.783 22.898-11.386 45.981-22.865 67.875-34.545-14.382-27.324-28.523-59.124-40.23-94.948-48.835 0.545-97.587 0.334-145.976-0.727-8.017-0.178-14.371-6.818-14.195-14.835s6.782-14.435 14.83-14.194c108.216 2.375 218.234 0.7 326.989-4.978 24.421-1.265 44.379-19.74 47.461-43.94 2.038-15.931 3.607-31.912 4.757-47.923-1.173-16.064-2.768-32.015-4.757-47.444-3.079-24.18-23.047-42.645-47.484-43.913-32.87-1.718-65.889-3.055-98.443-4.033 0.697 20.5 0.244 41.086-1.397 61.47-2.223 27.569-24.586 49.492-52.023 50.992-46.972 2.57-94.607 2.573-141.57 0-27.437-1.5-49.8-23.423-52.022-50.992-1.655-20.539-2.102-41.284-1.382-61.939-38.229 1.017-76.77 2.507-114.835 4.502-24.431 1.265-44.398 19.733-47.475 43.92-1.947 15.248-3.544 31.143-4.76 47.263 1.15 16.067 2.718 32.107 4.76 48.098 3.093 24.193 23.060 42.674 47.475 43.94zM454.613 439.405c47.028-26.911 85.028-55.065 97.795-85.672-44.257 2.114-88.678 3.581-133.090 4.377 10.468 30.304 22.779 57.552 35.295 81.296zM441.678 114.084c-1.060-13.163-11.664-23.625-24.665-24.338-0.003 0-0.003 0-0.003 0-45.918-2.51-92.476-2.51-138.398 0-13.001 0.713-23.606 11.175-24.667 24.338-2.181 27.077-2.181 54.533 0 81.606 1.061 13.167 11.666 23.628 24.669 24.338 22.958 1.259 46.078 1.886 69.2 1.886 23.119 0 46.239-0.628 69.199-1.886 13.001-0.71 23.605-11.172 24.665-24.338 2.183-27.073 2.183-54.53 0-81.606zM570.48 15.396c-153.177-7.987-308.509-7.987-461.681 0-24.419 1.282-44.392 19.767-47.485 43.956-3.201 25.075-5.28 50.268-6.287 75.502 13.522-13.56 31.904-22.208 52.252-23.261 39.217-2.055 78.946-3.581 118.325-4.605 4.256-25.293 25.588-44.818 51.422-46.232 23.486-1.285 47.137-1.929 70.787-1.929 23.648 0 47.299 0.644 70.782 1.929 25.993 1.42 47.421 21.177 51.494 46.694 33.67 0.991 67.858 2.365 101.878 4.142 20.361 1.054 38.75 9.708 52.274 23.268-1.007-25.233-3.092-50.434-6.299-75.515-3.082-24.186-23.043-42.668-47.461-43.949zM939.563 180.488c-2.986 43.642-8.506 87.126-16.46 129.503-1.48 7.878-9.057 13.064-16.946 11.588-7.881-1.48-13.071-9.067-11.588-16.946 8.010-42.681 13.464-86.525 16.295-130.504-11.175-2.289-23.849-4.667-37.878-6.983-1.754 58.381-7.984 116.511-18.587 173.043-1.48 7.878-9.067 13.064-16.946 11.591-7.878-1.48-13.068-9.064-11.591-16.942 10.537-56.185 16.652-114.001 18.214-172.058-43.285-5.939-96.147-10.58-155.704-10.58-11.515 0-23.083 0.182-34.555 0.525 0.819 43.688-1.529 87.43-7.079 130.814-4.354 34.185-30.066 61.11-63.039 67.769-10.66 44.359-56.201 79.991-114.906 113.492 23.202 39.269 44.907 65.761 54.388 76.628 54.83-9.124 110.014-13.698 165.201-13.698 55.18 0 110.361 4.572 165.188 13.695 10.894-12.456 37.858-45.39 64.525-94.324 30.555-56.066 66.795-144.932 69.001-253.635-9.441-2.98-25.63-7.746-47.533-12.978z" />
<glyph unicode="&#xe93a;" d="M406.062 198.012c-19.393 0.908-38.988 1.368-58.256 1.368-19.265 0-38.864-0.459-58.255-1.368-7.406-0.347-13.359-6.217-13.812-13.619-1.19-19.575-1.19-39.431 0-59.009 0.451-7.399 6.407-13.272 13.812-13.619 19.375-0.905 38.976-1.364 58.255-1.364 19.281 0 38.879 0.459 58.256 1.364 7.403 0.347 13.358 6.22 13.811 13.619 1.189 19.578 1.189 39.431 0 59.009-0.453 7.403-6.405 13.272-13.811 13.619zM391.498 140.222c-29.177-1.047-58.206-1.047-87.382 0-0.311 9.764-0.311 19.568 0 29.333 29.195 1.050 58.188 1.050 87.382 0 0.314-9.764 0.314-19.568 0-29.333z" />
<glyph unicode="&#xe93b;" d="M146.21 559.993l-12.387 68.129v61.936c2.065 14.452 7.432 43.355 12.387 43.355s37.161 12.387 61.935 18.581l49.548 6.194c12.387 0 18.581 0 80.517 12.387 4.859 0.972 37.161 6.194 49.548 6.194l-18.581 24.774 49.548-49.548 6.194-18.581c-8.258-2.065-27.252-6.194-37.161-6.194h-49.548l-24.775-12.387v-18.581c0-4.955-4.129-47.484-6.194-68.129l-6.194-61.935-24.774-6.194h-130.065z" />
<glyph unicode="&#xe93c;" d="M604.533 727.219l24.774 30.968 80.516 55.742 92.903 37.161c28.903 8.258 94.142 21.058 123.871 6.194 37.161-18.581 43.355-24.774 74.323-80.516-2.065-43.355-9.91-133.781-24.774-148.645l-30.968-55.742-18.581-12.387h-272.516v43.355c0 6.194-6.194 49.549-6.194 55.742v37.161l-6.194 24.774-12.387 6.194h-24.774z" />
<glyph unicode="&#xe93d;" d="M733.805 771.161c-8.615-8.617-13.362-20.074-13.362-32.26s4.747-23.643 13.362-32.26l105.462-105.463c8.618-8.615 20.074-13.362 32.259-13.362s23.641 4.747 32.256 13.362c8.618 8.618 13.365 20.074 13.365 32.261s-4.747 23.643-13.362 32.26l-105.462 105.464c-17.788 17.786-46.734 17.782-64.519-0.002zM883.256 645.167c3.131-3.131 4.859-7.299 4.859-11.729s-1.728-8.596-4.859-11.728c-3.135-3.135-7.3-4.859-11.73-4.859-4.433 0-8.598 1.724-11.73 4.859l-105.462 105.463c-3.131 3.131-4.859 7.299-4.859 11.729s1.728 8.596 4.859 11.729c3.234 3.234 7.479 4.85 11.73 4.85 4.248 0 8.496-1.616 11.73-4.85l105.462-105.465z" />
<glyph unicode="&#xe93e;" d="M1009.776 503.91c-6.068 29.987-27.717 54.041-55.412 64.251 68.674 114.575 78.197 221.87 23.255 276.815-24.1 24.1-59.006 36.439-101.019 35.665-8.014-0.147-14.392-6.765-14.247-14.78 0.145-7.926 6.616-14.251 14.508-14.251 0.092 0 0.185 0 0.274 0.002 34.37 0.637 61.305-8.511 79.955-27.163 28.847-28.846 29.627-72.673 25.2-104.359-6.26-44.812-26.532-95.346-58.688-146.583-83.727 1.599-167.814 2.702-252.036 3.307-0.548 49.439-3.607 99.484-9.17 148.99-0.76 6.759-6.108 12.086-12.873 12.814-4.331 0.464-8.664 0.879-12.998 1.308 61.285 51.821 126.801 88.323 187.108 103.883 7.763 2.003 12.433 9.92 10.428 17.683-2.002 7.764-9.923 12.434-17.682 10.429-23.113-5.964-46.879-14.758-70.841-26.095 4.667 20.29 6.891 44.614-2.015 62.764-5.368 10.938-14.25 18.395-25.689 21.568-16.949 4.696-43.279 2.23-72.532-36.201-1.414-1.86-2.781-3.734-4.099-5.598-0.159 0.552-0.317 1.102-0.486 1.653-5.748 19.127-20.777 51.217-56.875 51.217-12.536 0-23.466-4.998-31.615-14.451-10.636-12.343-15.287-31.514-16.959-50.622-12.704 16.708-28.094 30.137-44.739 30.137-10.815 0-20.675-5.509-27.764-15.512-18.68-26.351-18.951-83.457-1.599-143.289-4.347-0.054-8.691-0.153-13.035-0.244-28.441 33.187-62.821 56.027-77.857 65.166v31.82c6.815 1.194 11.997 7.127 11.997 14.284v40.985c0 22.089-17.97 40.058-40.058 40.058h-90.271c-22.089 0-40.058-17.97-40.058-40.058v-40.985c0-7.158 5.185-13.090 12-14.284l-0.012-31.815c-19.599-11.904-71.956-46.989-101.258-97.935-5.977-10.348-8.745-22.275-7.996-34.517 1.405-22.311 4.895-65.685 12.48-106.193-5.944-0.109-11.894-0.208-17.834-0.32-40.321-0.76-75.398-30.010-83.399-69.536-4.703-23.159-4.703-46.645-0.002-69.794 5.872-29.052 26.453-53.030 53.636-63.614 1.595-29.551 4.326-71.578 8.797-119.339-11.983-33.941-23.72-67.891-35.105-101.772-9.796-29.187 3.319-61.579 30.525-75.356 10.351-5.222 21.235-9.279 32.374-12.096 10.411-29.524 28.993-54.992 54.17-74.029 27.802-21.022 60.931-32.13 95.806-32.13h503.51c34.875 0 68.004 11.109 95.807 32.13 25.177 19.036 43.761 44.511 54.173 74.035 11.191 2.844 22.072 6.904 32.375 12.113 27.212 13.751 40.332 46.146 30.519 75.353-11.393 33.901-23.126 67.852-35.1 101.766 4.469 47.761 7.201 89.785 8.796 119.332 27.212 10.61 47.768 34.575 53.631 63.594 4.7 23.162 4.7 46.648-0.003 69.8zM634.797 710.947c4.648-44.576 7.227-89.521 7.736-133.966-107.675 0.624-215.526 0.449-323.093-0.545 0.494 44.617 3.077 89.745 7.74 134.513 102.12 10.189 205.491 10.189 307.617-0.002zM486.45 873.991c1.057 1.49 2.623 3.267 4.079 3.267 10.451 0 32.375-29.819 47.966-65.236 2.567-6.275 9.176-9.964 15.915-8.797 6.957 1.208 12.034 7.243 12.034 14.304 0 0.882-0.083 1.767-0.244 2.638-7.257 49.053 0.809 79.288 8.024 87.659 2.639 3.064 5.52 4.37 9.622 4.37 33.465 0 34.585-66.587 34.588-67.241 0-6.861 4.806-12.781 11.518-14.197 6.725-1.419 13.507 2.063 16.282 8.34 10.375 23.476 39.609 69.79 63.838 63.078 3.449-0.956 5.658-2.865 7.379-6.38 6.177-12.585 2.871-40.42-7.941-68.861-38.393-22.071-76.684-50.303-112.993-83.57-34.938 2.561-69.979 3.958-105.026 4.19-20.226 63.413-15.489 111.693-5.041 126.435zM341.243 818.601h-88.332l0.010 25.4h88.322v-25.4zM251.943 910.53h90.271c6.078 0 11.023-4.945 11.023-11.025v-26.465h-112.319v26.463c0 6.080 4.945 11.027 11.025 11.027zM155.723 578.659c-7.361 39.090-10.758 81.394-12.126 103.106-0.397 6.507 1.041 12.8 4.173 18.221 27.688 48.141 81.202 81.744 94.5 89.583h109.61c8.483-4.994 33.382-20.496 57.486-43.599-32.382-1.467-64.71-3.898-96.905-7.357-6.765-0.726-12.117-6.053-12.875-12.813-5.584-49.736-8.644-100.005-9.173-149.659-44.572-0.476-89.092-1.074-133.516-1.827-0.476 1.417-0.891 2.861-1.173 4.344zM108.906 364.594c0.122-0.003 0.242-0.017 0.364-0.017l0.464-0.010c6.509-0.122 13.019-0.228 19.53-0.344-5.818-15.641-11.596-31.295-17.306-46.975-1.28 17.685-2.278 33.64-3.053 47.345zM769.576-15.178h-503.509c-51.263 0-97.684 30.77-118.51 76.674 19.071 4.753 35.608 18.482 43.2 37.842 8.365 21.322 15.966 40.97 23.238 60.056 2.855 7.492-0.904 15.879-8.396 18.733s-15.879-0.902-18.734-8.397c-7.239-18.997-14.807-38.555-23.138-59.795-6.016-15.343-22.414-24.13-38.181-20.427-9.906 2.309-19.578 5.827-28.729 10.448-14.422 7.3-21.343 24.589-16.102 40.2 37.219 110.757 77.817 222.297 120.665 331.518 6.025 15.347 22.435 24.14 38.16 20.457 10.003-2.345 19.677-5.87 28.768-10.475 14.426-7.287 21.341-24.566 16.088-40.194-24.357-72.476-50.286-145.659-77.070-217.517-2.801-7.515 1.020-15.872 8.532-18.673 7.514-2.804 15.871 1.021 18.672 8.532 18.252 48.97 36.094 98.555 53.332 148.11 76.329-0.826 153.136-1.255 229.959-1.255 76.83 0 153.646 0.426 229.98 1.255 30.647-88.107 63.171-176.141 97.085-262.564 7.594-19.36 24.133-33.088 43.206-37.845-20.824-45.908-67.25-76.684-118.516-76.684zM938.836 99.979c-9.127-4.615-18.802-8.136-28.758-10.468-15.733-3.69-32.14 5.1-38.165 20.447-42.76 108.97-83.357 220.51-120.664 331.522-5.252 15.624 1.665 32.903 16.093 40.194 9.124 4.611 18.802 8.136 28.758 10.468 2.411 0.565 4.843 0.836 7.247 0.836 13.276 0 25.818-8.291 30.915-21.283 42.76-108.973 83.357-220.513 120.664-331.525 5.252-15.624-1.665-32.903-16.090-40.19zM906.392 364.224c6.501 0.116 13.001 0.221 19.499 0.344l0.519 0.010c0.112 0.003 0.221 0.013 0.334 0.017-0.776-13.702-1.777-29.65-3.052-47.325-5.711 15.677-11.485 31.324-17.299 46.955zM981.322 439.877c-4.39-21.722-21.131-39.209-42.734-44.57-4.073-1.037-8.377-1.612-12.757-1.701l-0.482-0.010c-9.92-0.185-19.839-0.36-29.762-0.529-11.264 29.888-22.693 59.66-34.297 89.23-11.251 28.682-42.136 45.066-71.812 38.109-12.202-2.857-24.057-7.171-35.236-12.823-27.212-13.755-40.329-46.149-30.515-75.353 4.631-13.788 9.315-27.582 14.049-41.38-146.079-1.516-293.842-1.516-439.923 0 4.734 13.801 9.434 27.595 14.058 41.36 9.823 29.214-3.298 61.612-30.502 75.353-11.134 5.639-22.989 9.956-35.245 12.836-29.678 6.95-60.552-9.437-71.815-38.119-11.608-29.587-23.033-59.349-34.288-89.214-9.929 0.168-19.861 0.344-29.79 0.525l-0.428 0.010c-4.415 0.092-8.716 0.664-12.873 1.724-21.52 5.338-38.262 22.825-42.654 44.561-3.923 19.327-3.923 38.925 0.002 58.259 5.327 26.307 28.666 45.769 55.498 46.278 270.733 5.196 545.274 5.196 816.009 0 26.829-0.509 50.169-19.971 55.497-46.288 3.928-19.324 3.928-38.919 0-58.259z" />
<glyph unicode="&#xe93f;" d="M325.94 310.966h-0.979c-33.245-0.079-60.074-26.32-61.076-59.739-1.179-39.358-1.179-79.274 0-118.635 1.003-33.415 27.829-59.656 61.088-59.739h0.968c33.246 0.083 60.075 26.32 61.076 59.739 1.179 39.361 1.179 79.277 0 118.635-1.004 33.422-27.83 59.66-61.076 59.739zM357.994 133.464c-0.519-17.368-14.931-31.533-32.112-31.576h-0.852c-17.194 0.043-31.606 14.207-32.126 31.576-1.163 38.783-1.163 78.111 0 116.895 0.521 17.368 14.933 31.533 32.136 31.576h0.828c17.195-0.043 31.607-14.207 32.126-31.576 1.163-38.783 1.163-78.111 0-116.895z" />
<glyph unicode="&#xe940;" d="M518.312 310.966h-0.981c-33.244-0.079-60.072-26.32-61.077-59.739-1.179-39.358-1.179-79.274 0-118.635 1.004-33.415 27.83-59.656 61.090-59.739h0.968c33.247 0.083 60.072 26.323 61.073 59.739 1.179 39.361 1.179 79.277 0 118.635-1.001 33.419-27.826 59.66-61.073 59.739zM550.367 133.464c-0.522-17.368-14.934-31.533-32.111-31.576h-0.852c-17.193 0.043-31.605 14.207-32.127 31.576-1.163 38.783-1.163 78.111 0 116.895 0.522 17.368 14.934 31.533 32.137 31.576h0.826c17.193-0.043 31.605-14.207 32.127-31.576 1.163-38.783 1.163-78.111 0-116.895z" />
<glyph unicode="&#xe941;" d="M710.679 310.966h-0.978c-33.247-0.079-60.072-26.32-61.077-59.739-1.176-39.358-1.176-79.274 0-118.635 1.004-33.415 27.83-59.66 61.090-59.739h0.968c33.247 0.083 60.072 26.323 61.077 59.739 1.179 39.361 1.179 79.277 0 118.635-1.004 33.419-27.83 59.66-61.080 59.739zM742.737 133.464c-0.522-17.368-14.931-31.533-32.114-31.576h-0.849c-17.193 0.043-31.605 14.207-32.124 31.576-1.166 38.783-1.166 78.111 0 116.895 0.519 17.368 14.931 31.533 32.134 31.576h0.829c17.193-0.043 31.605-14.207 32.124-31.576 1.163-38.783 1.163-78.111 0-116.895z" />
<glyph unicode="&#xe942;" d="M805.489 505.6h-360.922v-25.6l6.014-12.8 30.078-32 24.061-12.8 12.032-19.2-6.018-25.6-42.107-19.2-24.061-44.8-6.018-134.4 18.046-147.2 12.032-44.8 24.061-25.6c6.018-2.133 20.453-6.4 30.078-6.4 12.029 0 66.167-6.4 78.199-6.4h108.278l-12.032 25.6c-4.011 10.667-12.032 35.84-12.032 51.2s-4.011 57.6-6.014 76.8v96c0 10.24 12.032 85.333 18.046 121.6v19.2c0 6.4 18.046 6.4 24.061 12.8 6.018 6.4 24.064 6.4 30.078 6.4s24.061 6.4 30.075 6.4c6.018 0-6.014 6.4-12.029 12.8-6.018 6.4 0 6.4 0 12.8s0 19.2-6.018 25.6c-4.809 5.12 10.028 14.933 18.046 19.2 6.018 2.133 18.046 7.68 18.046 12.8s12.032 10.667 18.046 12.8l12.032 19.2v19.2l-24.061 6.4z" />
<glyph unicode="&#xe943;" d="M120.433 171.612c0-32.061 24.515-58.143 54.646-58.143 30.133 0 54.648 26.081 54.648 58.143s-24.515 58.143-54.648 58.143c-30.131 0-54.646-26.081-54.646-58.143zM201.532 171.612c0-15.517-11.865-28.143-26.451-28.143s-26.449 12.626-26.449 28.143c0 15.517 11.865 28.143 26.449 28.143s26.451-12.626 26.451-28.143z" />
<glyph unicode="&#xe944;" d="M244.548 251.761c23.723 0 43.025 20.535 43.025 45.773 0 25.242-19.302 45.776-43.025 45.776s-43.023-20.535-43.023-45.776c0-25.238 19.3-45.773 43.023-45.773zM244.548 313.31c8.177 0 14.828-7.076 14.828-15.773s-6.651-15.773-14.828-15.773c-8.175 0-14.826 7.076-14.826 15.773s6.653 15.773 14.826 15.773z" />
<glyph unicode="&#xe945;" d="M394.585 64.034c0 25.242-19.302 45.773-43.025 45.773-23.724 0-43.026-20.531-43.026-45.773 0-25.238 19.302-45.773 43.026-45.773s43.025 20.535 43.025 45.773zM336.732 64.034c0 8.697 6.649 15.773 14.828 15.773s14.828-7.076 14.828-15.773c0-8.697-6.649-15.773-14.828-15.773s-14.828 7.076-14.828 15.773z" />
<glyph unicode="&#xe946;" d="M961.871 317.105c-4.062 31.42-29.573 55.115-59.344 55.115h-9.987l9.622 26.624c2.796 7.731-0.829 16.411-8.1 19.384-7.27 2.976-15.425-0.887-18.217-8.615l-13.513-37.393h-58.672c-1.987 1.014-3.997 1.966-6.045 2.778-14.657 5.813-22.088 14.868-22.088 26.904 0 11.22 17.824 20.32 25.501 23.716 22.777 10.114 39.103 31.502 43.674 57.225 9.462 53.415 13.759 110.568 15.479 139.901 0.877 15.232-2.362 30.134-9.37 43.094-36.806 68.088-103.479 114.45-125.778 128.642v47.968h0.734c7.789 0 14.1 6.716 14.1 15v53.938c0 26.806-20.5 48.614-45.694 48.614h-111.657c-25.194 0-45.691-21.808-45.691-48.614v-53.938c0-8.284 6.308-15 14.097-15h0.737v-47.962c-14.391-9.158-47.268-31.732-78.667-64.88v10.524c16.056 9.244 26.989 27.328 26.989 48.080 0 30.122-23.033 54.626-51.343 54.626h-222.766c-28.312 0-51.343-24.506-51.343-54.626 0-20.756 10.939-38.844 27.004-48.086v-45.894c-19.298-11.978-71.724-47.582-117.907-106.608-8.297-10.636-13.585-23.538-15.292-37.325-2.295-18.551-5.735-48.838-9.085-87.767-0.711-8.25 5-15.551 12.754-16.305 0.436-0.044 0.87-0.065 1.301-0.065 7.206 0 13.354 5.847 14.023 13.633 3.309 38.441 6.698 68.308 8.961 86.586 0.737 5.949 2.605 11.605 5.448 16.664h319.5c2.485-24.951 5.96-53.067 10.755-80.189 4.543-25.723 20.873-47.121 43.687-57.238 7.656-3.389 25.47-12.486 25.47-23.709 0-12.046-7.424-21.098-22.074-26.907-26.31-10.455-44.858-36.243-47.254-65.696-5.55-67.936-9.67-199.4 25.112-316.532 2.929-9.868 7.496-18.787 13.315-26.487-2.707-0.177-5.42-0.287-8.144-0.287h-249.71c-68.162 0-125.466 56.552-130.458 128.741-6.448 93.245-6.138 196.069 0.925 305.613 0.532 8.267-5.333 15.425-13.1 15.991-7.762 0.573-14.499-5.673-15.031-13.937-7.153-110.957-7.461-215.211-0.913-309.866 2.951-42.697 20.845-82.255 50.384-111.394 29.513-29.112 67.938-45.145 108.194-45.145h249.713c13.623 0 27.109 1.84 40.172 5.455 8.646-3.529 18.005-5.444 27.727-5.444l372.521-0.010c29.771 0 55.282 23.695 59.344 55.119 13.974 108.155 13.974 217.829 0 325.987zM942.838 97.423c-11.23-7.308-24.006-11.155-37.325-11.155-39.513 0-71.656 34.195-71.656 76.22 0 42.039 32.147 76.24 71.656 76.24 12.957 0 25.412-3.639 36.4-10.557 2.598-43.537 2.915-87.187 0.925-130.748zM832.038 624.598c-1.345-22.923-4.301-63.245-10.138-105.014h-367.097c-5.827 41.728-8.806 82.070-10.165 104.995-0.539 9.36 1.423 18.448 5.683 26.308 1.72 3.182 3.526 6.312 5.39 9.396h365.264c1.867-3.084 3.673-6.216 5.393-9.398 4.25-7.856 6.205-16.952 5.67-26.288zM229.73 733.582h215.065v-33.138h-215.065v33.138zM565.019 911.386c0 10.264 7.851 18.614 17.497 18.614h111.657c9.646 0 17.497-8.35 17.497-18.614v-38.938h-146.65v38.938zM696.835 842.448v-41.638h-116.978v41.638h116.978zM569.477 770.81h137.738c11.902-7.398 56.637-36.738 92.433-80.528h-322.611c35.796 43.798 80.548 73.14 92.44 80.528zM225.872 812.836h222.766c12.762 0 23.149-11.048 23.149-24.626 0-13.574-10.377-24.616-23.132-24.626h-222.802c-12.756 0.010-23.129 11.054-23.129 24.626 0 13.578 10.384 24.626 23.148 24.626zM126.192 593.043c40.687 44.379 81.948 70.701 93.066 77.397h209.194c-0.86-1.52-1.727-3.036-2.56-4.578-7.025-12.952-10.274-27.86-9.397-43.144 0.478-8.021 1.15-18.138 2.062-29.675h-292.365zM902.526-34l-165.724 0.010c-15.674 0.099-29.078 12.612-31.222 29.191-2.219 17.196-4.086 34.499-5.55 51.432-0.713 8.25-7.574 14.333-15.329 13.565-7.752-0.758-13.459-8.059-12.749-16.309 1.502-17.377 3.42-35.13 5.693-52.77 1.184-9.161 4.202-17.657 8.608-25.105h-156.249c-21.268 0-39.83 14.384-46.182 35.796-33.311 112.186-29.28 239.183-23.91 304.906 1.464 17.981 12.858 33.754 29.020 40.178 25.682 10.189 40.414 30.239 40.414 55.013 0 14.804-7.431 35.741-42.827 51.405-14.008 6.212-24.033 19.33-26.815 35.089-0.072 0.393-0.14 0.792-0.205 1.184h357.697c-0.068-0.389-0.137-0.782-0.205-1.174-2.802-15.766-12.827-28.887-26.808-35.096-35.424-15.677-42.858-36.608-42.858-51.408 0-10.974 2.901-21.012 8.356-29.686h-18.695c-29.771 0-55.282-23.695-59.344-55.115-9.1-70.304-12.295-141.94-9.499-212.913 0.328-8.277 6.973-14.694 14.674-14.356 7.782 0.345 13.827 7.335 13.5 15.613-2.724 69.188 0.389 139.025 9.26 207.568 2.154 16.647 15.657 29.204 31.413 29.204h165.536c15.756 0 29.256-12.558 31.413-29.201 2.171-16.814 3.956-33.673 5.437-50.548-10.755 4.123-22.166 6.257-33.864 6.257-55.060 0-99.854-47.657-99.854-106.24 0-58.569 44.793-106.22 99.854-106.22 12.213 0 24.098 2.318 35.26 6.806-1.669-22.671-3.919-45.305-6.833-67.867-2.157-16.65-15.657-29.208-31.413-29.208z" />
<glyph unicode="&#xe947;" d="M457.888 437.951c-70.269 0-182.993-69.54-230.572-104.308l16.469-21.958 27.449-16.469 32.939-38.431 32.939-32.939 27.449-54.897 43.918-32.939c31.109-3.659 94.426-10.981 98.816-10.981 4.393 0 71.369 7.322 104.308 10.981l60.385 16.469c5.492 10.981 18.668 34.038 27.45 38.427 8.786 4.393 10.981 23.791 10.981 32.939l38.427 32.939c7.322 9.151 17.568 27.45 0 27.45-17.565 0-84.176 102.479-115.285 153.716h-175.674z" />
<glyph unicode="&#xe948;" d="M781.786 624.604c3.663 14.64 10.981 46.114 10.981 54.898l21.958-27.449 38.431-10.98h54.897l27.45-38.429v-60.389h-170.185l-38.427 16.469 21.958 16.469 32.939 16.469v32.94z" />
<glyph unicode="&#xe949;" d="M793.822 700.76h-49.21c-19.671 0.014-39.001-5.159-56.033-14.997-2.417-0.657-4.615-1.944-6.38-3.717l-0.829-0.827c-11.831-8.121-21.992-18.439-29.928-30.397-4.13-6.191-2.891-14.503 2.86-19.216 5.755-4.721 14.148-4.311 19.415 0.954l21.562 21.563 69.482-34.737v-12.262l-46.206-30.843c-14.073-9.335-32.782-7.492-44.752 4.431-3.632 3.761-9.018 5.274-14.080 3.946-5.059-1.321-9.011-5.274-10.332-10.332-1.328-5.062 0.184-10.448 3.942-14.080 21.204-21.316 50.053-33.266 80.118-33.174h74.848v-28.948h-28.948c-40.096-0.126-76.353-23.89-92.467-60.604-12.721 5.024-25.661 9.363-38.772 13.203 17.302 14.551 20.538 39.943 7.451 58.368-13.090 18.432-38.13 23.74-57.573 12.199-19.436-11.54-26.764-36.072-16.848-56.385-41.431 5.823-83.483 5.69-124.87-0.41 3.011 5.936 4.601 12.496 4.642 19.152 0.13 20.285-13.807 37.953-33.57 42.561-19.76 4.601-40.065-5.089-48.92-23.344s-3.887-40.199 11.958-52.873c-13.216-3.977-26.199-8.677-39.083-13.879-15.761 37.458-52.384 61.867-93.023 62.010h-28.949v28.948h74.845c30.072-0.092 58.929 11.865 80.131 33.188 5.484 5.683 5.407 14.708-0.177 20.292-5.583 5.581-14.608 5.659-20.291 0.177-11.972-11.926-30.687-13.783-44.766-4.448l-46.32 30.908v12.254l69.474 34.744 21.57-21.57c5.265-5.258 13.654-5.675 19.414-0.954 5.753 4.714 6.99 13.032 2.862 19.224-7.937 11.951-18.1 22.27-29.931 30.39l-0.827 0.827c-1.767 1.774-3.972 3.060-6.382 3.717-17.011 9.796-36.292 14.948-55.918 14.941h-49.211c-87.891-0.106-159.111-71.325-159.217-159.218v-57.897c0.064-55.931 45.388-101.257 101.32-101.318h67.679l-46.794-31.396c-3.943-2.649-6.332-7.059-6.403-11.81-0.071-4.748 2.191-9.223 6.057-11.984l3.781-2.707h-47.275l-53.656 53.654-20.468-20.466 57.897-57.897c2.714-2.714 6.396-4.239 10.234-4.239h93.779l17.167-12.264c7.067-5.117 13.796-10.684 20.135-16.684h-44.236c-1.555 0-3.096-0.249-4.573-0.737l-78.365-26.057-51.571 51.5-20.468-20.466 57.897-57.897c2.714-2.714 6.396-4.239 10.234-4.239 1.555 0 3.096 0.253 4.573 0.734l84.619 28.215h67.65c4.926-6.687 9.442-13.67 13.52-20.9l4.46-8.049h-44.554c-1.555 0-3.096-0.249-4.573-0.737l-86.845-28.948c-3.908-1.321-7.068-4.239-8.686-8.035l-43.423-101.318 26.602-11.407 40.864 95.338 78.407 26.16h58.286l3.23-5.789c4.785-8.544 10.785-16.346 17.817-23.159h-67.205c-39.953-0.051-72.322-32.42-72.372-72.373v-43.421c0.049-47.947 38.9-86.798 86.846-86.845 31.973 0 57.897 25.921 57.897 57.897 0 31.973-25.924 57.897-57.897 57.897h43.423c34.581 0.048 64.301 24.559 70.923 58.505 3.011-0.263 6.021-0.608 9.076-0.608h163.775c1.263 0 2.478 0.246 3.724 0.287 6.793-33.795 36.461-58.129 70.936-58.184h43.424c-31.976 0-57.897-25.924-57.897-57.897 0-31.976 25.921-57.897 57.897-57.897 47.944 0.048 86.794 38.898 86.845 86.845v43.421c-0.051 39.953-32.42 72.322-72.373 72.373h-61.918c8.523 8.352 15.493 18.156 20.579 28.948h53.466l78.449-26.16 40.864-95.338 26.604 11.407-43.424 101.318c-1.618 3.796-4.775 6.714-8.684 8.035l-86.845 28.948c-1.485 0.495-3.048 0.744-4.615 0.737h-42.718c5.137 10.134 11.124 19.825 17.896 28.948h65.898l84.617-28.215c1.478-0.481 3.021-0.734 4.574-0.734 3.837 0 7.52 1.526 10.233 4.239l57.897 57.897-20.466 20.466-51.572-51.572-78.363 26.054c-1.471 0.515-3.017 0.788-4.574 0.812h-41.803c4.635 4.198 9.4 8.26 14.473 12.042l22.497 16.906h91.679c3.837 0 7.52 1.526 10.233 4.239l57.897 57.897-20.466 20.466-53.658-53.654h-47.084l3.867 2.898c3.683 2.755 5.837 7.103 5.796 11.711-0.044 4.598-2.27 8.912-6.001 11.602l-43.841 31.686h64.307c55.934 0.061 101.257 45.387 101.321 101.318v57.897c-0.106 87.893-71.325 159.112-159.218 159.218zM272.749 671.812h20.263c5.548 0 11.082-0.551 16.517-1.647l-36.779-18.354v20.001zM258.275 78.367c0.021 18.398 11.612 34.792 28.948 40.95v-55.422h-28.948v14.473zM345.12 5.997c0-15.988-12.962-28.948-28.948-28.948-31.973 0-57.897 25.921-57.897 57.897h57.897c15.987 0 28.948-12.964 28.948-28.948zM620.131 498.121c7.994 0 14.476-6.482 14.476-14.476s-6.482-14.473-14.476-14.473c-7.994 0-14.473 6.479-14.473 14.473s6.479 14.476 14.473 14.476zM417.492 498.121c7.994 0 14.473-6.482 14.473-14.476s-6.479-14.473-14.473-14.473c-7.994 0-14.475 6.479-14.475 14.473s6.481 14.476 14.475 14.476zM200.377 483.645v-72.369h-14.474c-39.953 0.048-72.322 32.416-72.371 72.369v43.424h86.845v-43.424zM114.331 556.018c7.449 65.897 63.155 115.716 129.469 115.794v-72.373c0-4.84 2.417-9.356 6.439-12.042l47.119-31.379h-183.027zM229.326 411.276v57.897h28.949c29.182-0.079 55.466-17.671 66.654-44.626-8.63-4.14-17.125-8.564-25.485-13.271h-70.117zM359.594 92.843h-43.423v28.948h84.372c-6.156-17.336-22.552-28.928-40.949-28.948zM750.401 78.367v40.95c17.336-6.158 28.925-22.552 28.948-40.95v-14.473h-28.948v14.473zM779.349 34.946c0-31.976-25.924-57.897-57.897-57.897-15.988 0-28.948 12.96-28.948 28.948 0 15.985 12.96 28.948 28.948 28.948h57.897zM721.452 121.791v-28.948h-43.424c-18.398 0.020-34.792 11.612-40.95 28.948h84.374zM798.351 338.685l-49.21-36.949c-35.393-26.525-62.447-62.624-77.961-104.042-10.673-28.204-37.656-46.886-67.813-46.954h-163.734c-26.276 0.007-50.49 14.254-63.247 37.222l-23.768 42.786c-16.743 30.044-39.932 56.006-67.898 76.018l-44.455 31.761 44.469 29.833c147.287 98.833 340.547 95.454 484.296-8.465l29.321-21.21zM808.298 411.276h-66.584c-9.322 5.222-18.78 10.107-28.385 14.664 11.52 26.194 37.403 43.141 66.021 43.233h28.948v-57.897zM728.166 670.165c5.441 1.096 10.967 1.647 16.514 1.647h20.193v-20.001l-36.707 18.354zM924.092 483.645c-0.051-39.953-32.42-72.322-72.373-72.369h-14.473v115.794h86.845v-43.424zM822.77 556.018h-82.507l47.070 31.379c4.045 2.679 6.482 7.195 6.489 12.042v72.373c66.314-0.078 122.020-49.897 129.471-115.794h-100.523z" />
<glyph unicode="&#xe94a;" d="M442.201 349.136l-20.466-20.466 33.188-33.188-33.188-33.191 20.466-20.466 43.424 43.424c5.646 5.652 5.646 14.81 0 20.466l-43.424 43.421z" />
<glyph unicode="&#xe94b;" d="M595.425 349.136l-43.424-43.421c-5.646-5.656-5.646-14.814 0-20.466l43.424-43.424 20.466 20.466-33.188 33.191 33.188 33.188-20.466 20.466z" />
<glyph unicode="&#xe94c;" d="M428.308 819.643l-51.777 61.518 31.266-3.359 25.382-1.511 17.312 13.953 25.044 17.988 21.35 6.221 8.069-15.464 0.338-19.499 8.069-15.464 45.22-20.672 33.451-16.975 41.185-12.94 4.035-7.732-14.79-47.067-17.65 5.546-22.023 32.777-154.481 22.68z" />
<glyph unicode="&#xe94d;" d="M691.773 852.399c-15.51 1.955-31.157-2.374-43.455-12.026l-20.61-16.082c-7.148 0.902-14.217 2.348-21.142 4.32l12.585 22.864c1.147 2.081 1.188 4.598 0.099 6.715-1.085 2.114-3.151 3.55-5.509 3.834-18.985 2.341-42.479-8.862-51.374-13.613-16.152 8.98-33.225 16.181-50.927 21.484l-6.833 43.58c-0.577 3.704-3.915 6.331-7.653 6.022-31.983-2.385-60.518-25.11-70.124-33.564-87.73 7.343-157.631-14.542-162.284-52.261-4.947-40.112 65.963-80.754 161.434-92.529 10.148-1.251 20.19-2.029 30.112-2.532 18.132-17.446 41.561-28.354 66.58-31 2.464-0.318 4.915 0.667 6.475 2.598s2.004 4.539 1.174 6.878l-8.55 24.103c5.192 0.745 10.206 1.625 15.039 2.639 13.309-15.778 30.051-28.302 48.947-36.61 2.219-0.854 4.724-0.547 6.67 0.82 1.949 1.367 3.092 3.61 3.045 5.99l-0.754 40.597c7.332 0.179 14.674-0.154 21.965-0.993l2.277-0.281 16.080-20.608c9.588-12.351 23.716-20.353 39.233-22.225 3.919-0.483 7.489 2.301 7.97 6.219l15.749 127.693c0.485 3.918-2.301 7.486-6.219 7.969zM600.518 847.327l-7.759-14.094c-5.038 1.962-10.066 4.206-15.077 6.734 7.294 3.348 14.957 5.818 22.835 7.361zM491.53 904.407l4.731-30.222c-16.2 4.189-32.645 7.371-49.237 9.523 13.155 10.053 28.341 17.115 44.506 20.698zM479.526 738.044c9.537 0.101 18.729 0.644 27.638 1.469l5.54-15.629c-11.8 2.743-23.030 7.535-33.178 14.16zM552.578 747.808c1.007 0.302 2.103 0.543 3.082 0.854 8.049 2.489 16.319 4.194 24.699 5.091l0.546-28.45c-10.465 6.119-20.002 13.696-28.327 22.504zM616.554 768.051c-21.907 2.723-44.141 0.76-65.232-5.76-31.334-10.001-75.394-12.574-121.167-7.203 6.257 2.58 11.991 6.264 16.937 10.877l10.325 9.681c2.038 1.901 2.785 4.812 1.911 7.458-0.87 2.646-3.198 4.544-5.967 4.864l-56.751 7-1.75-14.188 41.578-5.128c-14.944-13.395-37.353-14.105-53.111-1.678l-6.746-8.624c-6.618 1.773-13.106 3.709-19.394 5.789l13.251 14.433c13.474 14.669 16.962 35.933 8.882 54.136l-5.501 12.396-13.058-5.792 5.493-12.402c5.771-13.002 3.282-28.193-6.342-38.671l-17.344-18.876c-38.596 14.931-66.344 35.218-63.835 55.558 0.218 1.429 0.593 2.835 1.121 4.184l21.35-20.519 9.914 10.301-22.753 21.891c21.878 19.312 79.023 31.429 153.509 22.242 45.78-5.646 88.34-18.731 116.777-35.886 19.299-11.91 40.765-19.885 63.157-23.463l-5.257-42.62zM680.305 817.803l-21.282 2.625-1.748-14.188 21.282-2.625-1.751-14.188-21.282 2.625-1.751-14.188 21.282-2.625-1.751-14.188-21.282 2.625-1.748-14.188 21.282-2.625-2.557-20.721c-9.001 2.601-16.94 7.991-22.688 15.395l-16.084 20.608 6.277 50.878 20.606 16.082c7.373 5.783 16.387 9.081 25.75 9.42l-2.557-20.721z" />
<glyph unicode="&#xe94e;" d="M338.035 845.614c-0.966-7.835-8.103-13.405-15.938-12.438s-13.405 8.103-12.438 15.938c0.967 7.836 8.103 13.405 15.938 12.438s13.405-8.103 12.438-15.938z" />
<glyph unicode="&#xe94f;" d="M401.008 830.646l191.54-23.625-1.751-14.188-191.539 23.625 1.75 14.188z" />
<glyph unicode="&#xe950;" horiz-adv-x="958" d="M561.274 263.132h74.323c82.094 0 148.645-66.551 148.645-148.645s-66.551-148.645-148.645-148.645h-74.323c-82.094 0-148.645 66.551-148.645 148.645s66.551 148.645 148.645 148.645z" />
<glyph unicode="&#xe951;" horiz-adv-x="958" d="M53.403 839.133l12.387-30.968 37.161 12.387 74.323 6.194 117.677 6.194 123.871-6.194 210.581-18.581 18.581 18.581 12.387 30.968c2.065 8.258 6.194 26.013 6.194 30.968s-16.516 6.194-24.774 6.194l-37.161-12.387h-37.161c-6.194 6.194-19.819 18.581-24.774 18.581s-14.452 8.258-18.581 12.387h-30.968l-18.581-18.581-24.774-12.387h-24.774l-61.935 37.161-30.968-6.194-18.581-18.581-30.968-12.387-30.968 6.194c-6.194 2.065-19.819 6.194-24.774 6.194s-10.323 12.387-12.387 18.581h-18.581l-24.774-6.194c-4.129-4.129-13.626-12.387-18.581-12.387-6.194 0-18.581-6.194-18.581-12.387s-18.581 0-24.774 0c-6.194 0-12.387 0-18.581 6.194-4.955 4.955-14.452 6.194-18.581 6.194h-24.774l-6.194-24.774 12.387-30.968z" />
<glyph unicode="&#xe952;" horiz-adv-x="958" d="M352.398 295.751c65.675 0 127.577 19.195 174.311 54.051 48.006 35.807 74.441 83.809 74.441 135.171s-26.436 99.364-74.441 135.171c-46.734 34.855-108.636 54.049-174.311 54.049s-127.576-19.195-174.309-54.049c-48.005-35.807-74.444-83.809-74.444-135.171s26.437-99.364 74.444-135.171c46.733-34.856 108.635-54.051 174.309-54.051zM132.678 484.973c0 88.328 98.566 160.188 219.72 160.188 121.156 0 219.721-71.859 219.721-160.188s-98.565-160.187-219.721-160.187c-121.154 0-219.72 71.858-219.72 160.187z" />
<glyph unicode="&#xe953;" horiz-adv-x="958" d="M898.058 80.965c12.090 9.381 18.67 20.959 18.67 33.62 0 12.655-6.577 24.232-18.67 33.614 10.584 7.34 17.765 15.826 21.451 25.382 3.214 8.334 5.265 21.755-3.231 38.383-6.62 12.955-17.107 21.359-30.33 24.312-21.18 4.727-49.225-4.813-83.519-28.348-16.199 44.115-57.463 75.7-106.909 77.94-10.372 0.469-20.771 0.836-31.182 1.159 10.002 172.792 6.831 347.85-9.467 520.714 5.364 8.642 15.631 27.776 22.072 56.298 3.881 17.168-3.425 34.056-18.607 43.023-14.95 8.828-32.976 7.105-45.921-4.392-6.497-5.772-12.635-9.348-23.152-9.348-13.814 0-19.985 6.049-29.319 15.203-10.683 10.477-23.975 23.511-49.647 23.511-25.669 0-38.958-13.034-49.641-23.507-9.335-9.155-15.505-15.204-29.313-15.204-13.814 0-19.981 6.049-29.316 15.204-10.683 10.473-23.975 23.507-49.644 23.507s-38.961-13.034-49.639-23.507c-9.337-9.155-15.506-15.204-29.315-15.204s-19.977 6.049-29.315 15.204c-10.678 10.473-23.97 23.507-49.638 23.507-25.667 0-38.956-13.034-49.635-23.507-9.337-9.155-15.503-15.204-29.31-15.204-10.514 0-16.653 3.577-23.149 9.347-12.937 11.495-30.957 13.22-45.913 4.396-15.184-8.963-22.489-25.849-18.61-43.017 6.445-28.534 16.717-47.672 22.082-56.312-2.51-26.615-4.763-53.759-6.674-80.843-0.565-7.997 5.46-14.938 13.458-15.501 8.034-0.558 14.938 5.462 15.503 13.46 1.779 25.212 3.842 50.496 6.151 75.33 181.888 21.9 366.166 21.9 548.065 0 15.799-170.163 18.749-342.417 8.856-512.457-45.888 0.806-91.945 0.208-137.563-1.856-49.446-2.243-90.71-33.825-106.906-77.94-34.294 23.535-62.344 33.079-83.523 28.348-13.221-2.95-23.708-11.356-30.33-24.315-8.495-16.625-6.445-30.046-3.232-38.377 2.716-7.039 7.341-13.49 13.808-19.337-69.462 1.962-139.669 7.148-209.175 15.525-15.339 165.181-18.616 332.46-9.736 497.369 0.432 8.005-5.71 14.845-13.715 15.275-8.054 0.441-14.843-5.71-15.277-13.715-9.074-168.494-5.543-339.416 10.448-508.125-5.323-8.519-15.734-27.747-22.235-56.541-3.887-17.173 3.418-34.066 18.608-43.034 14.95-8.83 32.977-7.102 45.909 4.39 6.505 5.774 12.649 9.348 23.153 9.348 13.814 0 19.985-6.048 29.323-15.205 10.682-10.471 23.975-23.506 49.644-23.506 25.673 0 38.966 13.035 49.648 23.506 9.337 9.157 15.509 15.205 29.321 15.205 4.682 0 8.491-0.71 11.818-1.979-5.288-5.265-9.161-10.996-11.547-17.183-3.213-8.331-5.263-21.752 3.233-38.38 6.621-12.955 17.108-21.359 30.33-24.312 3.519-0.786 7.225-1.176 11.121-1.176 19.546 0 43.805 9.92 72.394 29.541 16.196-44.124 57.46-75.713 106.912-77.953 32.814-1.486 65.853-2.23 98.899-2.23 33.036 0 66.081 0.743 98.889 2.23 49.453 2.243 90.716 33.828 106.912 77.953 28.589-19.621 52.845-29.541 72.393-29.541 3.895 0 7.604 0.393 11.122 1.179 13.22 2.95 23.707 11.356 30.33 24.312 8.493 16.628 6.445 30.049 3.227 38.38-3.68 9.56-10.861 18.046-21.445 25.382zM71.434 828.569c-4.465 8.277-10.856 22.398-15.258 41.879-1.597 7.071 3.464 10.682 5.052 11.619 1.918 1.132 6.919 3.298 11.872-1.101 8.739-7.762 21.459-16.673 42.429-16.673 25.667 0 38.956 13.034 49.636 23.507 9.335 9.155 15.504 15.203 29.31 15.203 13.808 0 19.975-6.049 29.313-15.203 10.676-10.473 23.969-23.507 49.638-23.507s38.962 13.034 49.64 23.507c9.337 9.155 15.507 15.203 29.314 15.203s19.978-6.049 29.316-15.203c10.679-10.473 23.975-23.507 49.644-23.507 25.666 0 38.958 13.034 49.638 23.507 9.338 9.155 15.505 15.203 29.316 15.203 13.814 0 19.981-6.049 29.319-15.203 10.686-10.473 23.978-23.507 49.647-23.507 20.969 0 33.693 8.909 42.437 16.673 4.945 4.398 9.956 2.235 11.878 1.099 1.589-0.939 6.649-4.551 5.051-11.623-4.403-19.487-10.798-33.61-15.251-41.871-186.5 22.739-375.461 22.739-561.943-0.002zM678.152-28.332c-19.545-0.74-39.153-1.232-58.784-1.437 8.678 63.68 24.787 127.964 47.996 191.346 2.758 7.528-1.11 15.865-8.638 18.624-7.531 2.755-15.865-1.113-18.624-8.641-24.414-66.666-41.228-134.362-50.050-201.421-19.515 0.063-39.014 0.386-58.47 0.971 19.677 143.083 72.156 253.080 90.28 287.807 18.264-0.211 36.507-0.677 54.695-1.351-4.195-8.572-9.14-19.089-14.498-31.328-3.214-7.343 0.132-15.905 7.475-19.119 1.896-0.832 3.871-1.225 5.817-1.225 5.589 0 10.917 3.25 13.302 8.701 7.65 17.467 14.389 31.245 19.195 40.626 17.193-3.376 32.576-11.535 44.736-23.050-23.060-51.626-59.144-146.234-74.432-260.502zM223.827 80.272c-9.339-9.153-15.511-15.205-29.323-15.205s-19.983 6.048-29.319 15.205c-10.684 10.471-23.977 23.506-49.648 23.506-20.95 0-33.674-8.905-42.431-16.671-4.951-4.397-9.952-2.236-11.868-1.103-1.591 0.941-6.654 4.555-5.052 11.637 4.73 20.949 11.774 35.718 16.237 43.652 68.361-8.314 137.413-13.649 205.812-15.839-1.113-3.511-1.7-7.142-1.7-10.871 0-3.766 0.596-7.436 1.735-10.983-1.554 0.106-3.141 0.178-4.793 0.178-25.675 0-38.968-13.035-49.65-23.506zM313.633 21.223c-3.207 0.717-7.335 2.408-10.8 9.19-3.919 7.673-3.019 12.077-1.997 14.722 3.006 7.789 13.969 15.608 30.871 22.013 5.691 2.157 9.437 7.637 9.371 13.728-0.063 6.088-3.921 11.489-9.659 13.527-17.762 6.306-25.851 14.881-25.851 20.183s8.090 13.877 25.851 20.183c5.738 2.038 9.596 7.439 9.659 13.53 0.063 6.088-3.68 11.568-9.371 13.725-16.902 6.405-27.865 14.22-30.871 22.013-1.020 2.646-1.922 7.049 1.997 14.719 3.465 6.782 7.593 8.476 10.8 9.19 6.838 1.529 27.028 1.328 70.324-30.773-0.129-1.457-0.254-2.91-0.334-4.383-2.038-38.618-2.038-77.781 0-116.402 0.079-1.47 0.205-2.927 0.334-4.38-43.292-32.104-63.476-32.306-70.324-30.783zM412.613 171.256c2.464 46.684 39.625 83.489 86.439 85.61 0.479 0.020 0.965 0.033 1.444 0.056-19.918-40.93-57.113-126.989-77.976-235.781-5.711 11.086-9.206 23.529-9.906 36.768-1.982 37.607-1.982 75.743 0 113.347zM446.781-8.281c21.527 132.311 70.012 234.047 86.782 266.399 18.574 0.542 37.191 0.846 55.821 0.908-22.914-46.575-68.991-153.012-86.954-286.859-1.126 0.050-2.253 0.086-3.379 0.135-19.783 0.895-37.825 8.004-52.27 19.416zM780.645 57.912c-2.22-42.067-32.619-76.1-72.859-83.971 13.768 97.422 42.866 179.61 64.542 230.826 4.763-10.247 7.687-21.55 8.318-33.508 1.982-37.607 1.982-75.743 0-113.347zM890.427 30.413c-3.465-6.782-7.594-8.473-10.802-9.19-6.841-1.523-27.030-1.325-70.326 30.776 0.132 1.457 0.258 2.913 0.337 4.383 2.038 38.621 2.038 77.784 0 116.402-0.079 1.47-0.205 2.927-0.337 4.383 43.292 32.101 63.478 32.302 70.326 30.773 3.207-0.717 7.336-2.408 10.802-9.186 3.918-7.673 3.016-12.077 1.995-14.719-3.006-7.792-13.969-15.611-30.869-22.013-5.695-2.157-9.437-7.64-9.375-13.728s3.921-11.492 9.659-13.527c17.765-6.306 25.854-14.884 25.854-20.183 0-5.302-8.090-13.88-25.854-20.186-5.738-2.035-9.596-7.439-9.659-13.527-0.066-6.088 3.68-11.571 9.375-13.728 16.899-6.402 27.863-14.22 30.869-22.013 1.021-2.643 1.922-7.046-1.995-14.719z" />
<glyph unicode="&#xe954;" horiz-adv-x="958" d="M255.276 532.886c64.453 8.559 129.804 8.559 194.253 0 0.647-0.086 1.292-0.129 1.929-0.129 7.168 0 13.401 5.308 14.372 12.605 1.057 7.948-4.532 15.248-12.48 16.301-66.98 8.896-134.909 8.896-201.898 0-7.947-1.054-13.535-8.354-12.478-16.301 1.057-7.944 8.354-13.53 16.301-12.476z" />
<glyph unicode="&#xe955;" horiz-adv-x="958" d="M465.831 420.805c-1.057 7.944-8.36 13.527-16.301 12.476-64.449-8.559-129.801-8.559-194.253 0-7.943 1.057-15.246-4.532-16.301-12.476-1.057-7.948 4.531-15.248 12.478-16.301 33.492-4.449 67.219-6.673 100.948-6.673s67.458 2.223 100.947 6.673c7.954 1.054 13.54 8.354 12.483 16.301z" />
<glyph unicode="&#xe956;" horiz-adv-x="958" d="M505.156 483.084c0 8.017-6.501 14.518-14.518 14.518h-276.468c-8.019 0-14.516-6.501-14.516-14.518s6.497-14.514 14.516-14.514h276.468c8.017 0 14.518 6.497 14.518 14.514z" />
<glyph unicode="&#xe957;" horiz-adv-x="958" d="M391.687 525.821c-5.193-5.193-6.491-32.454-6.491-45.436 0-2.164 5.193-5.193 25.963 0 25.963 6.491 12.982 6.491 25.963 19.473s6.491 0 32.454-6.491c25.963-6.491 12.982-12.982 25.963-19.473s12.982 0 19.473 0c6.491 0 19.473 12.982 32.454 19.473s12.982 6.491 19.473 12.982c5.193 5.193 6.491 10.818 6.491 12.982 0 4.327-1.298 15.578-6.491 25.963-6.491 12.982-12.982 19.473-19.473 25.963s-19.473 6.491-32.454 12.982c-12.982 6.491-25.963 0-38.945 0s-38.945-6.491-45.436-6.491c-6.491 0-19.473-19.473-25.963-25.963s-6.491-19.473-12.982-25.963z" />
<glyph unicode="&#xe958;" horiz-adv-x="958" d="M709.741 655.639c-6.491-6.491-45.439-149.291-45.439-155.781 4.327-4.327 19.476-15.578 45.439-25.963 25.963-6.491 12.982 6.491 32.454 12.982s12.982 6.491 32.454 6.491c19.473 0 12.982 0 32.454-12.982s12.982 0 25.963 0c10.385 0 17.309 12.982 19.473 19.473l25.963 51.927 51.927 116.836 38.945 149.291-51.927 6.491c-43.272 2.164-131.115 6.491-136.308 6.491s-15.145-34.618-19.473-51.927c-15.145-38.945-46.734-118.134-51.927-123.327z" />
<glyph unicode="&#xe959;" horiz-adv-x="958" d="M313.794 51.983c-77.891-20.771-106.018 51.93-110.345 90.875h-12.982c-4.328 2.164-14.281 6.491-19.473 6.491-6.491 0-45.437 6.491-51.927 6.491s-38.946-6.491-38.946-12.982c0-6.491-25.963-38.945-32.454-45.436s0-58.421 0-64.912c0-6.491 12.982-38.945 12.982-45.436s6.491-19.473 12.982-32.454c6.491-12.982 12.982-19.473 25.963-32.454s0-6.491 19.473-6.491c19.473 0 19.473 0 32.455 6.491s32.455 6.491 38.945 6.491c6.491 0 12.982-12.982 25.964-12.982s12.982-6.491 25.964 0c12.982 6.491 19.473 6.491 32.455 12.982s25.964 45.436 25.964 51.927c0 5.193 8.654 49.763 12.982 71.399z" />
<glyph unicode="&#xe95a;" horiz-adv-x="958" d="M782.878 780.998l31.414 10.226 32.256-99.105-31.41-10.218-32.259 99.097z" />
<glyph unicode="&#xe95b;" horiz-adv-x="958" d="M734.469 665.369l31.41 10.226 32.266-99.090-31.41-10.233-32.266 99.097z" />
<glyph unicode="&#xe95c;" horiz-adv-x="958" d="M177.532 617.191c-3.484-25.233 3.879-50.767 20.282-70.26l23.847-29.911v-275.951h33.032v249.906l23.863-15.905c5.556-3.703 12.782-3.703 18.339 0l40.378 26.951 40.382-26.918c5.556-3.703 12.78-3.703 18.336 0l40.379 26.918 40.382-26.918c5.556-3.703 12.78-3.703 18.336 0l40.379 26.918 40.382-26.918c5.556-3.703 12.78-3.703 18.336 0l40.379 26.918 33.032-22.016v-503.194h-363.353v-33.032h462.45c45.591 0.056 82.524 36.993 82.581 82.581v495.484c-0.040 3.63-1.288 7.145-3.548 9.992l95.443 254.097c12.846 34.137 8.146 72.395-12.579 102.403-19.694 29.113-52.581 46.516-87.72 46.411-44.788-0.419-84.685-28.403-100.322-70.379l-25.894-68.936-30.542 30.54v59.226c0 9.121-7.393 16.516-16.516 16.516h-181.677c-9.12 0-16.516-7.395-16.516-16.516v-28.339c-18.667 16.919-46.83 17.879-66.613 2.258v26.081c0 27.032-21.91 48.952-48.951 48.952-27.032 0-48.951-21.919-48.951-48.952v-26.097c-9.040 7.492-20.42 11.589-32.161 11.565-13.629 0.032-26.694-5.468-36.202-15.25-19.589-20.185-19.71-52.25-0.282-72.589l15.379-15.871c-5.597-2.564-10.677-6.129-14.992-10.516l-0.105-0.064-0.161-0.169c-3.847-3.952-7.032-8.5-9.419-13.476l-18.822 34.766-29.056-15.726 42.71-78.83c-1.912-1.089-3.831-2.145-5.645-3.387-0.677-0.46-1.274-0.992-1.936-1.452l-63.911 58.895-22.395-24.29 63.484-58.532c-7.291-11.153-12.016-23.782-13.839-36.984zM526.3 535.585l-40.382-26.951-40.379 26.921c-5.556 3.7-12.78 3.7-18.336 0l-40.002-26.68c-0.096 1.655-0.38 3.092-0.38 4.677-0.102 36.299 26.099 67.34 61.896 73.325 35.807 5.992 70.679-14.831 82.389-49.195-1.704-0.443-3.323-1.146-4.806-2.098zM568.498 519.667l-0.314 0.211c-1.982 34.717-20.685 66.312-50.169 84.757-29.475 18.442-66.071 21.441-98.162 8.047v107.355h148.645v-200.371zM816.24 26.36c0-27.361-22.184-49.548-49.548-49.548h-66.065v503.161l33.032 22.049 40.379-26.918c5.559-3.703 12.783-3.703 18.34 0l23.863 15.872v-464.615zM771.468 852.764c10.765 29.113 38.36 48.573 69.401 48.951 24.275 0.049 46.978-11.992 60.565-32.105 14.58-21.121 17.874-48.048 8.816-72.064l-102.268-272.396-24.774-16.516-40.379 26.921c-5.556 3.7-12.78 3.7-18.336 0l-40.382-26.921-33.508 22.34 120.865 321.79zM701.902 761.473l-87.651-233.324-12.721-8.483v210.048l66.065 66.065 34.307-34.306zM502.434 868.683h148.645v-33.032h-148.645v33.032zM492.759 802.618h134.967l-49.548-49.548h-134.967l49.548 49.548zM260.097 832.247c3.314 3.419 7.871 5.355 12.629 5.355 4.766-0.008 9.322-1.935 12.637-5.355l24.25-24.774c4.71-4.806 11.863-6.266 18.081-3.71 6.216 2.565 10.266 8.645 10.226 15.371v66.065c-0.268 5.863 2.709 11.395 7.743 14.403 5.037 3.016 11.32 3.016 16.354 0 5.041-3.008 8.014-8.54 7.739-14.403v-66.065c0.010-6.702 4.066-12.734 10.276-15.266 6.2-2.54 13.322-1.073 18.022 3.702l24.325 24.774c6.967 6.863 18.145 6.863 25.105 0 7.178-7.347 7.178-19.072 0-26.419l-48.653-49.548 0.492-0.5-7.663-7.661c-1.331-1.371-2.401-2.968-3.184-4.71-0.235-0.508-0.363-1.024-0.548-1.548-0.492-1.411-0.789-2.879-0.889-4.363 0-0.363-0.201-0.661-0.201-1.024v-145.686c-3.756-3.597-7.247-7.459-10.435-11.565l-31.202 66.395c-11.515 22.912-32.329 39.766-57.144 46.242-5.774 1.492-11.694 2.395-17.653 2.677l-4.234 4.96c-3.298 3.782-5.79 6.734-6.194 7.145-4.266 4.468-6.113 10.726-4.952 16.798 0.613 3.452 2.202 6.645 4.572 9.218l0.299 0.282 0.411 0.444c5.984 5.863 15.25 6.726 22.218 2.080 7.008-4.685 16.411-3.339 21.83 3.113 5.42 6.46 5.105 15.952-0.726 22.040l-43.653 45.056c-7.089 7.419-7.032 19.121 0.121 26.476zM210.266 612.682c2.153 16.007 11.016 30.348 24.379 39.428 13.25 8.96 29.71 11.798 45.202 7.79 15.484-4.016 28.5-14.492 35.726-28.766l42.098-89.67c-1.041-3.861-1.863-7.782-2.461-11.74l-8.701 5.814c-5.549 3.7-12.783 3.7-18.331 0l-40.452-26.905-36.629 24.444-3.54 4.436 42.581 32.92-20.218 26.129-42.935-33.211-3.669 4.572c-10.508 12.387-15.25 28.662-13.048 44.759z" />
<glyph unicode="&#xe95d;" horiz-adv-x="958" d="M58.734-15.026c12.548-25.316 38.403-41.29 66.653-41.195 11.573 0.017 22.976 2.712 33.331 7.865l13.395 6.702 13.411-6.702c10.347-5.153 21.75-7.848 33.315-7.865 28.258-0.096 54.105 15.879 66.661 41.195l5.758 11.558c19.339 38.806 29.435 81.557 29.5 124.911-0.056 47.804-38.79 86.538-86.597 86.594-16.113-0.046-31.895-4.621-45.532-13.21v13.21c0 36.484-29.581 66.065-66.065 66.065v-33.032c18.242 0 33.032-14.789 33.032-33.032v-13.21c-13.637 8.588-29.42 13.163-45.532 13.21-47.806-0.056-86.54-38.79-86.597-86.594 0.056-43.365 10.153-86.132 29.5-124.945l5.766-11.525zM110.064 175.005c14.21 0.043 27.847-5.612 37.871-15.694l12.5-12.499c6.452-6.441 16.903-6.441 23.355 0l12.5 12.499c15.323 15.324 38.355 19.905 58.371 11.614s33.065-27.823 33.065-49.482c-0.040-38.245-8.944-75.954-26.016-110.179l-5.758-11.565c-7.008-14.072-21.395-22.944-37.113-22.888-6.436 0.010-12.782 1.51-18.549 4.38l-20.79 10.402c-4.653 2.325-10.121 2.325-14.766 0l-20.782-10.402c-5.766-2.871-12.121-4.37-18.564-4.38-15.726-0.046-30.121 8.849-37.113 22.944l-5.758 11.558c-17.065 34.208-25.968 71.901-26.016 110.13 0.040 29.564 24 53.522 53.564 53.562z" />
<glyph unicode="&#xe95e;" d="M532.949 267.247c-138.554-2.068-415.666-4.961-415.666 0h-6.204l6.204-62.041c4.135-2.068 13.647-7.442 18.61-12.407 6.204-6.203 12.408-12.407 12.408-18.61v-18.614c0-6.203-12.408-12.407-12.408-18.61s-18.61-12.41-24.814-18.614c-4.963-4.961-2.068-31.021 0-43.428l428.077 12.407-6.207 179.917z" />
<glyph unicode="&#xe95f;" d="M346.829 515.409l-18.612-105.469 55.836 24.814 49.631 24.817c8.271-4.136 26.059-13.649 31.021-18.61 6.203-6.207 49.631-62.041 55.838-68.245 4.961-4.965 18.61-80.652 24.814-117.876v-105.469l12.407-62.041h43.431c-2.068-12.407-6.207-38.463-6.207-43.428 0-6.203-6.203-18.61 0-24.814 6.207-6.203 18.614 0 31.021-6.203 12.41-6.207 49.634 0 74.448 0 24.817 0 80.652 0 93.062 6.203 12.407 6.203 43.428 12.407 49.631 18.61s24.817 49.631 24.817 55.838c0 4.961-8.275 64.106-12.41 93.058-10.339 66.177-31.021 199.769-31.021 204.731 0 6.203-31.017 142.693-31.017 148.896 0 4.965-8.275 2.068-12.41 0-14.475-6.203-44.666-18.61-49.631-18.61h-68.245c-4.961 0-39.292 12.407-55.834 18.61l-68.241 6.203c-28.953-2.068-88.1-6.203-93.062-6.203-4.965 0-68.245-16.543-99.265-24.814z" />
</font>
</defs>
</svg>
